<svg xmlns="http://www.w3.org/2000/svg" width="139.587" height="158.981" viewBox="0 0 139.587 158.981"><g data-name="レイヤー 2"><path d="M69.75 11.974c-.946.254-1.9.6-2.845.851-.865.232-1-.254-1.2-1.012-.051-.188-.175-.33-.391-.271s-.568.586-.694.765c-.444.612-2.156 2.87-2.752 3.03-.757.2-2.961-1.524-3.164-2.281-.072-.27.181-.513.63-.894a23.45 23.45 0 005.971-8.1A24.033 24.033 0 0066.393.989c.071-.28.095-.4.393-.483C67.218.39 70.174.06 71.029 0c.312-.026.511.066.568.282.066.244-.195.459-.137.674a9.849 9.849 0 002.128 1.662 20.906 20.906 0 008.679 3.061c.572.078.817.128.9.426.16.595-.175 3.556-1.014 3.78-.567.153-4.256-1.059-5.029-1.345a1.009 1.009 0 00-.579-.105c-.27.072-.218.377-.159.593.181.677.312 1.163-.527 1.388-.973.262-1.941.435-2.914.7zm6.65-.394a2.215 2.215 0 012.02.181c.377.218.831.5.947.935.3 1.108-1.7 7.5-2.161 8.9a14.083 14.083 0 01-1.123 2.621 1.082 1.082 0 01-.662.556c-.622.167-3.584-.284-3.8-1.1a1.268 1.268 0 01.27-.826c.693-1.2 2.478-5.131 2.2-6.158-.1-.379-.441-.346-.82-.244l-4.219 1.133c-1 .269-2.013.6-3.041.875-.594.16-.748-.088-.959-.873l-.472-1.757c-.211-.785-.229-1.07.392-1.237 1.028-.276 2.07-.5 3.071-.766zm-4.074-4.155c.46-.123.831-.252.745-.576-.066-.243-.4-.414-.71-.593a24.059 24.059 0 01-2.254-1.481c-.179-.126-.4-.3-.642-.233-.163.042-.289.222-.467.531-.381.739-.918 1.87-1.412 2.727a.773.773 0 00-.14.56c.087.324.5.242.906.134zm6.12 42.425a.8.8 0 00-.682 1.025c.162.709-.128.817-1.372 1.151l-1.406.378c-1.109.3-1.475.338-1.664-.365-.363-1.353-.645-2.726-1.008-4.079l-3.487-12.979c-.254-.946-.569-1.905-.831-2.879-.313-1.163.169-1.64 1.25-1.931 1-.268 1.988-.475 2.989-.745l7.356-1.975c.973-.262 1.932-.577 2.932-.846 1.028-.276 1.742-.207 2.076 1.037.262.974.47 1.962.724 2.908l3.486 12.98c.364 1.352.8 2.655 1.164 4.007.181.676-.122.844-.987 1.077l-2 .538c-1 .268-1.266.253-1.462-.478-.08-.3-.452-.6-1.155-.415zm-4.5-12.88a.806.806 0 00.968.58l6.436-1.728a.8.8 0 00.554-.961l-.792-2.947a.8.8 0 00-.96-.554l-6.436 1.728a.8.8 0 00-.554.961zm2.281 8.491a.782.782 0 00.961.553l6.436-1.728a.783.783 0 00.554-.96l-.878-3.273a.784.784 0 00-.961-.553L75.9 41.228a.791.791 0 00-.547.988zm15.727 10.532a9.852 9.852 0 014.733 6.179 10.5 10.5 0 01-3.023 10.438 10.767 10.767 0 01-2.891 2.081c-.947.255-3.049-1.848-3.252-2.606-.066-.243.15-.416.883-.816 2.918-1.654 4.957-4.318 4.027-7.779-1.14-4.246-4.836-5.05-5.647-4.832-.46.123-.383.625-.279 1.118.712 3.839.865 8.726-.824 12.369a5.426 5.426 0 01-3.317 3.3 4.989 4.989 0 01-4.859-1.682 9.469 9.469 0 01-1.982-3.815A11.864 11.864 0 0183.912 55.2a10.382 10.382 0 018.042.793zM79.537 68.808c.175.65.867 2.58 1.814 2.325.649-.174 1.089-2.2 1.207-2.845a25.309 25.309 0 00-.156-7.381.369.369 0 00-.461-.311c-.784.21-3.631 3.643-2.404 8.212zm12.826 32.854a.8.8 0 00-.682 1.023c.162.711-.128.817-1.372 1.151l-1.405.378c-1.109.3-1.476.338-1.664-.364-.363-1.352-.646-2.726-1.009-4.078l-3.486-12.98c-.255-.947-.57-1.905-.832-2.879-.312-1.163.169-1.64 1.25-1.93 1-.27 1.989-.477 2.989-.745l7.356-1.976c.973-.262 1.932-.577 2.932-.846 1.028-.276 1.742-.207 2.077 1.037.261.974.469 1.962.723 2.908l3.487 12.98c.363 1.352.8 2.655 1.163 4.007.182.676-.121.845-.986 1.077l-2 .537c-1 .269-1.266.253-1.461-.477-.08-.3-.453-.6-1.156-.414zm-4.5-12.881a.808.808 0 00.968.581l6.435-1.729a.8.8 0 00.554-.961l-.792-2.947a.8.8 0 00-.96-.554L87.629 84.9a.8.8 0 00-.554.961zm2.28 8.491a.784.784 0 00.961.554l6.433-1.726a.783.783 0 00.554-.961l-.879-3.271a.783.783 0 00-.96-.554l-6.436 1.726a.789.789 0 00-.547.988zm6.611 13.503a.443.443 0 00-.549-.316l-6.246 1.678c-1.163.313-2.284.671-3.42.976-.622.168-.741-.062-.945-.819l-.312-1.163c-.2-.756-.222-1.042.373-1.2 1.163-.312 2.312-.563 3.476-.876l5.759-1.547c.487-.131.842-.428.7-.969a6.632 6.632 0 00-.243-.689 1.129 1.129 0 01-.1-.263c-.094-.351.161-.478.459-.557s2.674-.516 3.087-.6c1.022-.188 1.529-.352 1.645.08.058.216-.117.322-.324.522a.585.585 0 00-.193.574c.109.405.434.434.759.346l4.32-1.162c1.135-.305 2.284-.671 3.42-.976.595-.16.714.068.925.853l.341 1.27c.182.677.186.907-.41 1.067-1.163.313-2.313.564-3.448.87l-4.57 1.227a.441.441 0 00-.316.548l.014.055a.443.443 0 00.549.316l1.974-.53c.649-.175 1.317-.383 1.993-.565.785-.211 1.4-.29 1.656.657.2.73.338 1.475.534 2.205l1.867 6.95c.2.729.531 1.654.618 1.978.32 1.191-.626 1.445-1.654 1.721l-10.14 2.724c-1.109.3-2 .538-2.321-.653-.073-.27-.266-1.2-.484-2.015l-1.867-6.95c-.232-.865-.475-1.553-.642-2.175-.247-.92.346-1.2 1.1-1.4.676-.181 1.36-.336 2.036-.517l.405-.11a.293.293 0 00.218-.377zm-1.914 15.648a.749.749 0 00.96.554l14.035-3.77c1.136-.3 2.257-.665 3.42-.977.594-.159.714.07.9.772l.385 1.434c.181.676.2.961-.368 1.113-1.163.313-2.313.564-3.476.876l-14.383 3.865a.322.322 0 00-.271.391c.035.454-.3.6-1 .792l-1.812.486c-.865.233-1.212.24-1.4-.463-.268-1-.448-2-.717-3l-2.419-9c-.218-.812-.479-1.785-.779-2.574a1.06 1.06 0 01-.1-.263c-.1-.378.168-.451.466-.532 1.108-.3 2.586-.52 3.735-.771.3-.08.671-.094.773.285.051.19-.07.28-.3.487-.3.285-.226.67-.037 1.374zm8.777-12.765a.372.372 0 00.257-.447l-.066-.243a.371.371 0 00-.446-.257l-5.516 1.482a.37.37 0 00-.257.446l.065.243a.39.39 0 00.446.257zm-4.825 3.731a.443.443 0 00-.317.549l.029.108a.443.443 0 00.549.317l5.354-1.439a.459.459 0 00.316-.549l-.029-.108a.458.458 0 00-.548-.316zm.879 3.273a.44.44 0 00-.317.547l.036.136a.444.444 0 00.549.317l5.354-1.439a.461.461 0 00.317-.549l-.037-.135a.441.441 0 00-.548-.316zm-3.637 17.327c.01-.931.072-1.672.049-2.622-.012-.258 0-.551.267-.623s3.812.483 4.357.569.751.2.794.366-.05.245-.17.336a2.264 2.264 0 00-.874 1.713 21.469 21.469 0 00.55 8.522c.152.567.3 1.135.576 1.063.216-.059.245-.27.283-.454.1-.721.172-1.089.415-1.154.378-.1 2 .42 2.1.825.131.487-.584 3.868-.09 5.707.08.3.257.742.372 1.059a3.277 3.277 0 01.158.481c.2.729-.533 1.36-1.063 1.764a4.86 4.86 0 01-1.284.721c-.487.131-.847-.236-1.3-.751a20.6 20.6 0 01-4.008-8.23 35.6 35.6 0 01-1.132-9.292zm14.557-6.462c.142-.009.374-.013.424.177a.965.965 0 01-.086.545 4.407 4.407 0 00.153 2.509.591.591 0 00.77.49 18.126 18.126 0 001.877-1 4.4 4.4 0 01.659-.351c.406-.109.66.4.85.787a12.044 12.044 0 01.927 2.157c.181.677-.026.876-2.891 2.081-.574.241-.834.456-.652 1.132.094.352 1.244 3.986 1.373 4.358.228.633.486.623 1.257.793a16.1 16.1 0 013.444 1.277 1.667 1.667 0 01.928.969c.2.756-.657 2.843-1.468 3.061-.405.11-.906-.133-1.619-.521-.137-.079-.267-.131-.4-.21a.854.854 0 00-.628-.18c-.244.065-.288.223-.4.571-.475 1.577-2.253 2.518-3.74 2.918-2.461.66-5.248.1-6-2.68-.712-2.651 1.232-4.478 3.612-5.117l.622-.167a.613.613 0 00.467-.85c-.167-.622-.644-1.857-.76-2.289-.247-.919-.471-1.323-1.066-1.163-.487.131-2.323.74-3.459 1.045l-.405.108a2.177 2.177 0 01-1.425.094 13.717 13.717 0 01-1.057-2.964c-.095-.352-.115-.752.317-.868a27.616 27.616 0 011.273-.226 35.223 35.223 0 003.343-.723c.432-.117.741-.374.61-.861-.152-.567-1.169-3.164-1.329-3.76-.087-.324-.016-.488.31-.576.57-.15 3.464-.493 4.169-.566zm-1.709 18.028c.145.541 1.083.579 1.651.427.622-.167 1.159-.543.963-1.273-.146-.542-.991-.343-1.4-.234s-1.374.485-1.214 1.08zM39.939 31.913c.893-.24 1.77-.534 2.69-.781.811-.217.943-.049 1.147.707l.145.541c.334 1.245.385 1.433-.507 1.672s-1.827.434-2.719.673l-2.678.72c-.919.247-1.8.54-2.689.779-.839.226-.943.051-1.161-.76l-.247-.92c-.218-.81-.215-1.014.624-1.24.892-.239 1.826-.432 2.718-.672zM38.388 28.3c.758-.2 1.5-.461 2.095-.62.758-.2.87 0 1.066.729l.334 1.243c.2.73.208.989-.55 1.192-.568.153-1.32.267-2.131.486l-1.46.391c-.838.226-1.52.5-2.088.649-.757.2-.9.008-1.1-.749l-.363-1.352c-.174-.648-.09-.875.587-1.057.567-.152 1.393-.316 2.15-.519zm16.12-1.082a1.2 1.2 0 00-.032.531.567.567 0 00.747.408c.622-.167 1.223-.415 1.872-.59s.775.081 1 .92l.364 1.351c.225.839.244 1.123-.406 1.3-.784.211-1.582.367-2.366.578-.433.117-.837.341-.7.855l.073.27c.138.514.572.513 1.005.4.595-.16 1.365-.425 1.824-.548.649-.175.776.081.979.838l.393 1.461c.21.784.229 1.068-.42 1.243-.487.131-1.022.188-1.509.318l-.271.073c-.432.116-.9.3-.744.9l.087.325c.152.568.707.476 1.059.382l.243-.065c.487-.131.952-.343 1.466-.481.622-.167.749.089.96.873l.406 1.514c.2.758.215 1.016-.407 1.183-.541.144-1.212.238-1.807.4-.433.115-.8.36-.664.874l.109.405c.131.488.587.567 1.02.451.839-.225 1.655-.532 2.493-.756.622-.167.742.061.959.873l.414 1.541c.2.73.215 1.015-.38 1.175-.893.24-1.779.391-2.671.63l-6.3 1.693c-.541.145-.4.686-.345.876.1.467-.329.61-.978.784l-1.325.356c-1.108.3-1.347.274-1.522-.375-.239-.892-.419-1.887-.688-2.887L46.5 40.038c-.036-.136-.141-.31-.3-.267-.054.015-.074.049-.141.125a.467.467 0 01-.248.153.9.9 0 01-.587-.132c-.1-.059-.323-.232-.485-.188-.217.058-.108.464-.071.6l.051.189c.217.812.241 1.008-.543 1.218-.649.175-1.367.309-2.123.513l-1.46.392c-.758.2-1.474.453-2.122.628-.731.2-.863.028-1.051-.675l-.3-1.108c-.2-.731-.173-.969.585-1.172.622-.167 1.34-.3 2.124-.513l1.46-.392c.595-.159 1.21-.354 1.561-.448.244-.065.411-.2.338-.468-.116-.433-.448-.372-2.1.07l-1.461.393c-.73.2-1.445.446-2.176.642-.7.19-.807.015-.989-.662l-.312-1.162c-.182-.676-.186-.907.544-1.1.568-.152 1.394-.316 2.178-.526l1.46-.393c.784-.21 1.581-.482 2.149-.635.514-.138.786-.095.937.357.036.136.121.345.31.294.217-.057.469-1.17.621-1.79.045-.157.07-.28.082-.342a29.665 29.665 0 00.7-7.435c0-.32-.016-.49.2-.547.324-.087 2.989.009 3.565 0 .231 0 .639 0 .711.272.059.217-.17.336-.318.434-.357.184-.362.271-.429 1.1-.028.326-.048.794-.111 1.42a1.541 1.541 0 00-.012.5c.124.46.7.334 1 .255.649-.174.827-.483.909-1.258a27.348 27.348 0 00.172-3.787c.01-.176.068-.395.23-.439.3-.08 2.581 0 3.1.008.5.012 1.263-.05 1.365.328.087.325-.176.425-.405.545-.31.14-.3.283-.331.494a15.833 15.833 0 01-.269 1.688zM38.372 47.99c-.2-.757-.475-1.554-.613-2.068-.32-1.189.276-1.669 1.358-1.96.7-.188 1.414-.35 2.117-.539l.513-.137c.73-.2 1.427-.413 2.13-.6 1.108-.3 1.837-.174 2.164 1.042.175.649.3 1.34.5 2.07l.588 2.19c.247.92.59 1.872.756 2.494.175.648-.135.79-1.054 1.037l-.865.233c-.975.261-1.36.335-1.541-.34l-.073-.271a.463.463 0 00-.529-.35l-.271.072a.463.463 0 00-.282.568l.051.19c.21.784-.006.842-1.628 1.278l-.649.175c-.947.254-1.313.294-1.488-.355-.181-.675-.346-1.618-.593-2.537zm3.849-.136a.48.48 0 00.549.317l.378-.1a.483.483 0 00.317-.55l-.32-1.189a.461.461 0 00-.549-.317l-.378.1a.458.458 0 00-.316.548zm9.205-14.3a.663.663 0 00-.823-.474l-1.3.348a.681.681 0 00-.475.823l.058.217a.682.682 0 00.824.475l1.3-.349a.681.681 0 00.475-.823zm-1.194 5.916a.68.68 0 00.823.475l1.3-.349a.682.682 0 00.475-.823l-.08-.3a.682.682 0 00-.825-.473l-1.3.348a.665.665 0 00-.475.824zm3.86 4.008a.684.684 0 00-.824-.478l-1.3.349a.683.683 0 00-.475.823l.109.406a.682.682 0 00.824.475l1.3-.348a.664.664 0 00.475-.825zm-.816 9.265c.5.038.647.145.676.253.036.135-.1.259-.2.343-.328.29-.32.752-.324 1.71.012.258.01.577 0 .957a.855.855 0 00.012.259.478.478 0 00.644.349 11.919 11.919 0 002-1.292 2.4 2.4 0 01.625-.371c.73-.2 1.456 2.508 1.667 3.293.124.46-.017.585-.36.821-.885.586-2.608 1.513-3.605 2.012-1.1.555-1.163.632-1.234 1.666A80.025 80.025 0 0151.2 76.089c-.122.41-.2.751-.664.874s-3.6-.338-3.816-1.149a2.46 2.46 0 01.257-1.2 46.347 46.347 0 002.044-10.088 1.876 1.876 0 00.023-.673c-.1-.379-.421-.38-.718-.3-.541.145-1.169.4-1.764.561-.567.152-.94.165-1.263-.386a20.923 20.923 0 01-1.067-2.787c-.095-.352-.113-.636.32-.752.27-.072 1.523-.265 2.93-.642 1.352-.363 1.784-.479 1.819-1.214a31.8 31.8 0 00-.552-5.186c-.025-.2-.026-.312.136-.356a38.476 38.476 0 014.391-.048zm3.034 17.015c1.464 1.028 3.6.773 5.221.336a13.525 13.525 0 003.932-1.664.985.985 0 01.282-.134c.433-.116.647.464.88 1.329l.217.812c.4 1.487.487 1.812.036 2.078a31.753 31.753 0 01-4.478 1.579c-1.92.516-4.608.977-6.516.242-.52-.208-1.588-.732-1.755-1.354a6.555 6.555 0 01.772-2.411c.151-.3.493-.974.817-1.061.192-.051.447.142.592.248zm.441-8.932a23.868 23.868 0 016.357-.837c.407.006.734.034.85.467a9.882 9.882 0 01-.012 3.192.6.6 0 01-.427.463 2.432 2.432 0 01-.726-.008 12.315 12.315 0 00-4.847.519l-.975.261c-.622.167-.833.137-.963-.349-.879-3.273-.208-3.453.743-3.708zm2.608-8.21c.48.277 2.668 1.516 2.784 1.949.138.514-.952 1.851-1.25 1.931-.108.028-.244-.051-.5-.244a32.815 32.815 0 00-2.473-1.655c-.138-.079-.35-.224-.387-.359-.108-.406 1.1-1.718 1.348-1.782.135-.038.375.101.478.16zm2.451-2.745c.473.25 2.661 1.488 2.778 1.921.13.487-.926 1.843-1.223 1.922-.162.044-.383-.129-.493-.215-.942-.7-1.7-1.165-2.68-1.774a.343.343 0 01-.207-.233c-.1-.379 1.015-1.723 1.34-1.81.108-.029.314.089.485.189zM60.14 96.15c-.42 0-.476-.225-.476-.868 0-2.575 1.677-4.144 3.384-5.544.9-.729 1.623-1.373 1.622-2.241 0-1.148-.98-1.791-2.576-1.79a5.375 5.375 0 00-4.058 2.129c-.223.281-.363.449-.531.449-.141 0-.309-.14-.56-.392L54.9 85.851c-.252-.252-.364-.42-.364-.616 0-.168.111-.336.335-.588A9.647 9.647 0 0162.4 81.4c4.338 0 7.083 2.348 7.085 5.427 0 2.575-1.566 3.863-3.692 5.572A4.141 4.141 0 0064 95.531c0 .5-.056.616-.5.617zm4.565 3.972a2.736 2.736 0 01-2.91 2.884 2.443 2.443 0 01-2.577-2.462 2.769 2.769 0 012.854-3 2.53 2.53 0 012.633 2.578z" fill="#006d88"/><path d="M138.087 15.388v142.093M1.5 89.696l58.161 57.359" fill="none" stroke="#006d88" stroke-linecap="round" stroke-linejoin="round" stroke-width="3"/></g></svg>