<svg xmlns="http://www.w3.org/2000/svg" width="139.688" height="206.409" viewBox="0 0 139.688 206.409"><g data-name="レイヤー 2"><path d="M63.725 54.389a2.038 2.038 0 00.125.585 1.667 1.667 0 001.2.982 6.058 6.058 0 012.061.925c.25.594-.292 3.131-.886 3.381a5.212 5.212 0 01-1.622-.533.911.911 0 00-.572-.062c-.259.108-.294.457-.311.707a18.607 18.607 0 01-1.058 4.486 1.267 1.267 0 01-.645.849c-.568.239-3.133-.079-3.392-.7-.11-.258.07-.7.175-.954a18.006 18.006 0 001.284-5.249.594.594 0 00-.016-.328.377.377 0 00-.488-.22c-.233.1-.248.347-.272.51a.614.614 0 01-.362.364c-.646.272-3.124.374-3.374-.22-.032-.077-.1-.747-.127-.949-.1-1.839-.635-5.262-.734-5.858a2.406 2.406 0 00-.092-.508.559.559 0 00-.693-.347l-.231.1c-.568.239-.751-.049-1.055-.771l-.684-1.626c-.326-.774-.394-1.08.225-1.341.259-.108.707-.267.914-.354a.783.783 0 00.439-.762c-.02-.265-.646-2.4-.773-2.773-.308-1.025-.38-1.268-.072-1.4.233-.1 2-.446 2.461-.58 1.277-.355 1.656-.393 1.8-.058a.568.568 0 01-.2.6c-.3.307-.289.4-.063 1.15.095.294.22.667.35 1.19a1.347 1.347 0 00.1.32c.206.491.471.47.911.285.412-.173.814-.373 1.253-.557.955-.4 1.614-.5 2.081.613a34.694 34.694 0 012.343 9.103zm-5.25-5.112c-.336.141-.26.535-.193.841.213 1.156.412 2.348.573 3.526a1.278 1.278 0 00.1.445c.1.232.379.54.662.42.517-.217.3-1.009.245-1.44a23.252 23.252 0 00-.922-3.561c-.09-.208-.232-.329-.465-.231zm14.792-3.614c.981-.413 1.9-.893 2.859-1.294.7-.294.879-.006 1.2.769l.554 1.316c.326.775.405 1.106-.266 1.388-.981.413-1.957.763-2.938 1.176l-.387.163c-.619.26-.915.568-.622 1.264l1.5 3.561c.294.7.637 1.372.93 2.069 1.283 3.046-1.109 4.508-3.56 5.54-1.033.435-1.463.494-1.992-.042a7.2 7.2 0 01-1.4-2.175c-.184-.439-.248-.807.268-1.024a5.915 5.915 0 01.667-.22 8.925 8.925 0 001.142-.389c.9-.381.875-.521.343-1.786l-1.683-4a.77.77 0 00-1.137-.462l-.44.184c-.955.4-1.914.866-2.868 1.268-.7.294-.879.006-1.2-.768l-.283-.672c-.6-1.419-.728-1.729.021-2.044.954-.4 1.967-.737 2.922-1.138l.387-.163c.465-.2.776-.54.559-1.056l-.26-.619c-.239-.568-.57-1.28-.85-1.8a.972.972 0 01-.134-.247c-.13-.31.017-.464.3-.583.336-.142.4-.351.714-1.121a5.425 5.425 0 00.491-1.573c-.076-.181-.2-.127-.8.123l-2.426 1.021c-.877.369-1.7.8-2.5 1.142-.594.25-.781.025-1.074-.672l-.651-1.549c-.3-.722-.372-1.027.247-1.288.775-.326 1.685-.618 2.562-.987l4.387-1.847c1.006-.424 1.965-.888 2.972-1.312a1.738 1.738 0 011.728.062 3.151 3.151 0 011.078.975c.434 1.032-1.681 5.173-2.265 6.239a1.8 1.8 0 00-.041 1.779l.271.645a.762.762 0 001.108.384zm-1 19.924c.654.758.888.811 1.224.67a6.464 6.464 0 001.185-1.228 2.411 2.411 0 01.8-.763c.568-.239 2.425 1.5 2.685 2.12.174.413-.074.76-.309 1.072a14 14 0 01-1.273 1.447c-.174.165-.455.435-.358.668.066.155.321.472.605.352a10.786 10.786 0 002.089-2.4 2 2 0 01.658-.672c.389-.163.915.223 1.347.527a5.18 5.18 0 011.648 1.463c.174.413-.208.878-.937 1.671a48.73 48.73 0 01-1.337 1.443.741.741 0 00-.244.863c.086.206.277.369.646.669a22.616 22.616 0 003.315 2.311c.425.216 1.082.548 1.277 1.012.293.7-1.167 3.074-1.839 3.356-.231.1-.44.034-.918-.16a6.925 6.925 0 00-4.905.181c-.749.315-1.838 1.047-1.436 2 .6 1.419 3.043.663 4.075.228a17.7 17.7 0 001.65-.845c.272-.146.689-.382.818-.436.619-.261.922.1 1.379 1.181 1.031 2.452.6 2.662-.17 2.988a26.593 26.593 0 01-4.226 1.506c-2.891.64-5.887.018-7.136-2.95-1.316-3.123.507-5.652 3.371-6.858a9.13 9.13 0 011.448-.457l.1-.043a.425.425 0 00.234-.525 1.937 1.937 0 00-.533-.474.682.682 0 00-.694-.133 1.663 1.663 0 00-.237.16 38.5 38.5 0 01-6.22 3.986c-.465.2-.74-.023-1.089-.422a9.532 9.532 0 01-1.512-2.22c-.152-.361-.125-.585.911-1.082a35.134 35.134 0 004.982-2.887.422.422 0 00.173-.528.515.515 0 00-.584-.3 3.369 3.369 0 00-.3.218 22.271 22.271 0 01-3.045 1.859c-.439.185-.676-.018-.994-.341a10.21 10.21 0 01-1.561-2.047c-.162-.386-.05-.768.637-1.087a23.828 23.828 0 001.534-.829c.432-.273.65-.547.487-.934A2.263 2.263 0 0069 68.3a3.429 3.429 0 01-1-.884c-.174-.412.527-.982.82-1.226a9.689 9.689 0 011.91-1.381c.67-.283.932.061 1.537.778zm15.257 20.585a29.24 29.24 0 013.466-.213c.265-.021.769-.05.888.234.131.31-.1.408-.334.5-.155.066-.237.16-.252.41a10.933 10.933 0 01-.182 1.231.631.631 0 000 .427c.109.257.377.174.584.088l.258-.109c.8-.337 1.614-.71 2.415-1.047.567-.239.738.024.988.617l.4.955c.282.67.328.925-.266 1.174-.878.37-1.776.688-2.68 1.068l-.955.4a.353.353 0 00-.193.477l.1.232a.309.309 0 00.4.164l.336-.142c.619-.26 1.2-.535 1.8-.785 1.109-.467 1.442-.182 1.758.567.162.386.317.9.566 1.492a.563.563 0 00.734.3l.155-.065c.543-.228.735.085 1 .7l.467 1.11c.26.619.329.925-.239 1.163l-.207.087a.513.513 0 00-.221.7c.227.542.63 1.283.8 1.7.272.646-.134.907-.727 1.157l-.852.359c-.129.055-.4.2-.326.381.2.464 4.163 1.59 4.867 1.748.111.045.246.078.3.208.217.516-.686 2.991-1.278 3.241-.181.076-.412-.039-.695-.133a21.4 21.4 0 01-2.566-1.046.494.494 0 00-.434-.091c-.155.065-.14.242-.076.4.348.825.758 1.656 1.116 2.507.261.619.025.78-.75 1.1l-1.109.468c-.775.326-1.079.394-1.329-.2-.555-1.317-1.021-2.639-1.574-3.955l-.935-2.22a.37.37 0 00-.528-.172l-.387.163a.369.369 0 00-.194.477l.933 2.219c.544 1.29 1.175 2.574 1.718 3.864.262.619.025.78-.775 1.116l-1.11.468c-.774.325-1.054.383-1.3-.211-.293-.7-.561-1.4-.854-2.1-.131-.31-.243-.506-.424-.429s-.3.52-.345.692c-.125.569-.638 2.456-1.154 2.673-.749.315-3.054-.9-3.27-1.418a.394.394 0 01-.026-.2.615.615 0 00-.035-.229c-.032-.077-.179-.138-.252-.167a.624.624 0 00-.157-.086.639.639 0 00-.533-.109c-.233.1-.248.348-.265.6-.016.826-.486 4.761-1.209 5.065-.516.217-2.769-.444-3-.986-.1-.232.033-.5.228-.976a14.355 14.355 0 00.795-3.525 5.009 5.009 0 000-1.518c-.066-.155-.218-.3-.373-.239-.181.076-.126.206-.114.383.025.2-.108.318-.288.394-.362.152-2.7.376-3.023-.4a2.783 2.783 0 01-.158-.662 59.65 59.65 0 00-1.689-6.611c-.142-.336-.267-.344-.535-.26-.347.114-.546-.288-.753-.778l-.63-1.5c-.348-.825-.4-1.1.086-1.312l.1-.043a.658.658 0 00.288-.759c-.066-.154-1.163-3.339-1.272-3.6-.1-.232-.228-.542.03-.65.181-.076 1.919-.566 2.867-.842.485-.145.791-.212.921.1a.571.571 0 01-.177.59c-.285.332-.241.436.022 1.206.137.4.328.925.563 1.769l.065.155a.631.631 0 00.725.423c.515-.217.995-.449 1.511-.666.827-.348 1.318-.19 1.666.636a62.356 62.356 0 012.855 8.731 6.623 6.623 0 00.2.7 1.433 1.433 0 00.966.778c.465.169 1.078.4 1.219.732a3.171 3.171 0 01.089 1.149 1.645 1.645 0 00.041.316c.034.077.1.169.179.137a7.018 7.018 0 00.9-2.689c-.086-.207-.252-.167-.433-.091l-.206.087c-.542.228-.692.017-.931-.55l-.391-.929c-.249-.594-.285-.822.257-1.05.645-.272 1.287-.481 1.906-.742a.322.322 0 00.178-.44l-.1-.232a.311.311 0 00-.4-.164l-.335.141c-.748.315-1.5.693-2.25 1.008-.567.239-.727 0-.955-.54l-.4-.955c-.271-.645-.318-.9.275-1.149.748-.315 1.519-.578 2.268-.893l.335-.141a.314.314 0 00.165-.4l-.088-.206c-.1-.232-.285-.245-.491-.158-.619.261-1.192.562-1.811.823-.542.228-.68.043-.9-.472l-.392-.93c-.282-.671-.317-.9.2-1.116.645-.272 1.312-.492 1.957-.763.232-.1.209-.3.132-.481l-.087-.206a.312.312 0 00-.4-.165l-.335.141c-.7.294-1.424.66-1.914.866-.568.24-.738-.022-1.01-.668l-.391-.928c-.228-.542-.319-.9.2-1.117.413-.174.811-.311 1.224-.485.207-.087.354-.24.268-.446a13.4 13.4 0 00-1.7-1.505 1.7 1.7 0 01-.388-.414c-.174-.412 1.069-1.36 1.545-1.743a5.929 5.929 0 01.985-.689c.362-.152.688.045 1.686.9a7.49 7.49 0 011.14 1.191c.174.413-.451.949-.729 1.157-.065.059-.174.164-.14.241.064.155.194.1.477-.018l1.316-.555c1.084-.456 1-1.088 1.091-4.408.017-.175.011-.477.217-.564zm-9.59 14.094c.316 1.112.659 2.213.949 3.337a5.157 5.157 0 00.209.641c.13.31.418.7.805.542.206-.087.186-.352-.014-1.118-.235-.844-.914-3.109-1.2-3.78-.087-.206-.193-.314-.476-.194a.482.482 0 00-.273.572zm10.538-5.926a.37.37 0 00.2-.476l-.076-.181a.372.372 0 00-.477-.194l-.439.185a.371.371 0 00-.195.476l.076.181a.354.354 0 00.477.194zm1.41 3.2a.312.312 0 00.164-.4l-.1-.232a.309.309 0 00-.4-.165l-.546.23a.31.31 0 00-.164.4l.1.232a.293.293 0 00.4.164zm1.361 3.376a.37.37 0 00.193-.477l-.064-.154a.371.371 0 00-.477-.194l-.439.184a.37.37 0 00-.194.477l.065.154a.338.338 0 00.476.195zm2.819-5.136a.311.311 0 00.165-.4l-.1-.232a.313.313 0 00-.4-.165l-.542.229a.31.31 0 00-.164.4l.1.233a.293.293 0 00.4.164zm1.386 3.366a.346.346 0 00.169-.466l-.065-.155a.348.348 0 00-.452-.2l-.463.195a.354.354 0 00-.2.477l.066.154a.353.353 0 00.476.2zM89.553 119.5c.28-.058.6-.1.694.133.043.1 0 .213-.128.418a1.982 1.982 0 00-.013 1.342 20.651 20.651 0 001.186 3.754 13.024 13.024 0 003.014 4.564c.392.352 1.2.982 1.772.743.593-.25.741-1.557.8-2.068.05-.386.141-.82.528-.983.774-.325 3.3.342 3.564.961s-.35 2.487-.583 3.161c-.48 1.388-1.024 2.62-2.443 3.217-1.729.728-3.732.082-5.252-.858-3.04-1.88-4.806-5.571-6.142-8.745a187.643 187.643 0 01-1.544-4.029.421.421 0 01.264-.6c.336-.142 3.583-.871 4.283-1.01zm9.1-4.8c.7-.294 3.409.449 5.316 1.8a15.223 15.223 0 014.136 4.486c.226.391.565.978.695 1.288a.851.851 0 01-.254 1.2 9.711 9.711 0 01-2.267 1.47c-.955.4-1.122.077-1.613-.871-1.535-3-3.651-4.994-6.842-5.717a.578.578 0 01-.442-.33c-.253-.595.494-3.006 1.268-3.326zm-3.088 28.968c-.115-.924-.154-1.667-.306-2.605-.046-.254-.078-.544.181-.653s3.842-.038 4.393-.026.772.1.838.255-.018.25-.124.355a2.265 2.265 0 00-.634 1.816 21.494 21.494 0 001.7 8.368c.229.542.457 1.084.715.975.207-.086.208-.3.22-.487 0-.729.022-1.1.255-1.2.361-.152 2.035.146 2.2.533.195.464-.054 3.912.684 5.667.119.283.356.7.512 1a3.041 3.041 0 01.222.454c.294.7-.344 1.42-.814 1.892a4.875 4.875 0 01-1.175.889c-.464.2-.872-.12-1.393-.567a20.615 20.615 0 01-5.088-7.611 35.61 35.61 0 01-2.386-9.055zm13.548-8.376c.14-.028.368-.063.444.117a.968.968 0 01-.011.552 4.4 4.4 0 00.492 2.466.589.589 0 00.828.38 17.875 17.875 0 001.725-1.243 4.479 4.479 0 01.606-.437c.387-.163.708.31.948.664a12.029 12.029 0 011.211 2.012c.272.646.094.872-2.582 2.454-.535.317-.764.565-.493 1.211.142.335 1.773 3.78 1.951 4.13.313.6.567.551 1.353.615a16.126 16.126 0 013.587.8 1.667 1.667 0 011.049.834c.3.723-.265 2.906-1.039 3.232-.386.163-.916-.009-1.674-.3-.147-.06-.283-.094-.429-.154a.858.858 0 00-.647-.092c-.232.1-.255.259-.316.619-.258 1.627-1.89 2.8-3.31 3.4-2.348.989-5.185.816-6.3-1.843-1.065-2.528.615-4.6 2.885-5.558l.594-.25a.613.613 0 00.348-.905c-.25-.594-.89-1.753-1.064-2.166-.369-.877-.646-1.246-1.213-1.007-.465.2-2.2 1.048-3.287 1.5l-.386.163a2.175 2.175 0 01-1.4.285 13.755 13.755 0 01-1.449-2.793c-.141-.335-.215-.729.2-.9.156-.065.989-.324 1.232-.4 1.1-.342 2.18-.736 3.214-1.17.412-.174.682-.471.486-.935-.228-.542-1.587-2.977-1.826-3.545-.13-.309-.081-.482.228-.613.532-.223 3.357-.954 4.045-1.123zm.751 18.094c.217.516 1.151.426 1.693.2.594-.25 1.075-.7.782-1.393-.218-.516-1.029-.2-1.415-.042s-1.299.667-1.06 1.235zM35.9 68.258c.28-.057.6-.1.693.133.044.1 0 .213-.127.419a1.979 1.979 0 00-.012 1.341 20.57 20.57 0 001.185 3.754 13.04 13.04 0 003.015 4.564c.392.352 1.2.982 1.77.744.594-.25.743-1.558.8-2.069.051-.386.142-.819.529-.982.774-.326 3.3.341 3.563.96s-.35 2.487-.583 3.162C46.26 81.671 45.715 82.9 44.3 83.5c-1.729.729-3.733.083-5.252-.857C36 80.763 34.237 77.07 32.9 73.9c-.207-.49-1.418-3.656-1.545-4.028a.421.421 0 01.266-.6c.337-.143 3.579-.872 4.279-1.014zm9.1-4.8c.7-.293 3.409.449 5.315 1.8a15.218 15.218 0 014.137 4.487c.225.39.563.978.693 1.287a.846.846 0 01-.254 1.2 9.668 9.668 0 01-2.264 1.468c-.955.4-1.122.077-1.613-.87-1.535-3-3.651-5-6.841-5.718a.581.581 0 01-.444-.33c-.249-.59.498-3 1.271-3.326zm.657 26.091l.264-.02c.478-.019.957-.038 1.076.246.055.128-.012.187-.135.329A1.894 1.894 0 0046.3 91.5a18.848 18.848 0 001.462 7.587c.4.955.76 1.807 1.07 1.676.154-.065.162-.19.181-.653.01-.551 0-.942.255-1.05.336-.142 1.994.043 2.156.429s.246 3.543.843 4.962c.131.31.447.845.6 1.144a4.205 4.205 0 01.279.52c.4.954-1.421 2.542-1.963 2.771-.464.195-.82.071-1.548-.5a18.736 18.736 0 01-5.506-7.738 32.1 32.1 0 01-2.255-8.894 6.128 6.128 0 00-.152-.938c-.19-.741-.152-.939.106-1.047a24.5 24.5 0 012.7-.163c.536-.021.952-.044 1.129-.057zm10.091-5.615c.243-.073.472-.107.548.074a.71.71 0 01-.055.447 2 2 0 00.264 1.348c.814 1.935 1.161 2.4 1.7 2.17a13.2 13.2 0 001.391-.952 1.955 1.955 0 01.381-.251c.464-.2.855.37 1.058.709a18.307 18.307 0 01.995 1.921c.325.774.13.887-1.672 1.949-.313.193-.926.542-.611 1.29.174.413.385.84.569 1.28a13.942 13.942 0 01.88 9.958c-.184.716-.766 2.51-1.463 2.8a1.346 1.346 0 01-.79 0c-1.014-.242-2.7-.716-2.93-1.258-.086-.206-.048-.405.179-.8.056-.084.07-.121.141-.242 1.742-3.224 1.518-5.773.138-9.051l-.195-.465c-.162-.386-.447-.631-.912-.436-.207.087-1.554.928-1.724 1.03-.56.327-1.543.953-2.11 1.192-.619.261-1.02.248-1.943-1.946-.587-1.394-.583-1.457.345-1.847.517-.218 2.94-1.39 3.608-1.823a.747.747 0 00.379-.979 32.27 32.27 0 00-2.419-3.723 2.432 2.432 0 01-.226-.391c-.131-.309.132-.48.391-.589a70.96 70.96 0 014.083-1.415zM61.6 109.3c.139-.028.383-.1.47.106a.955.955 0 010 .515 3.03 3.03 0 00.273 1.8.61.61 0 00.817.355c.464-.2 2.728-1.818 3.334-2.255a6.667 6.667 0 01.972-.652c.361-.152.707.31.878.572a13.875 13.875 0 011.208 2.074c.26.619-.006.853-.767 1.356a104.839 104.839 0 01-3.688 2.281c-.585.338-.837.535-.61 1.076a.612.612 0 00.84.407 25.544 25.544 0 002.507-1.693 3.277 3.277 0 01.6-.376c.206-.086.422.067.667.358a11.651 11.651 0 011.223 2.4c.348.825-.409 1.266-2.674 2.522-.989.539-1.141.755-.945 1.219.6 1.42.71 1.614 1.618 1.536 1.236-.094 5.313-.08 5.824 1.133.239.568-.03 2.96-.856 3.308a6.08 6.08 0 01-2.436-.372 3.131 3.131 0 00-1.395-.142c-.362.152-.345.479-.355.817.022 2.361-1.8 3.8-3.817 4.645a6.279 6.279 0 01-3.486.525 4 4 0 01-2.907-2.361 3.844 3.844 0 01.278-3.454 7.594 7.594 0 013.553-2.742l.285-.12a.551.551 0 00.3-.8.664.664 0 00-.886-.447c-.464.2-2.01 1-3.146 1.475-.98.413-1.25.5-1.7-.135a11.15 11.15 0 01-1.371-2.248c-.163-.387-.264-.77.2-.966.748-.315 1.912-.653 3.151-1.174l.7-.294c.645-.271 1.114-.53.875-1.1a.64.64 0 00-.891-.385c-.877.37-2.408 1.136-3.621 1.646l-.774.326c-1.033.435-1.87.757-2.176.46a10.029 10.029 0 01-1.425-2.59c-.153-.361-.311-.81.179-1.017s3.3-1.115 5-1.832l.568-.239c.62-.261 1.062-.508.834-1.05-.1-.232-.834-1.623-1.108-2.054a3.706 3.706 0 01-.381-.691c-.131-.309.017-.463.327-.593.493-.2 3.241-.961 3.934-1.13zm.7 19.785c.26.619 1.226.244 1.665.059.7-.293 1.472-.833 1.1-1.71-.152-.361-.472-.257-.963-.051-.514.217-2.118.953-1.802 1.702zm6.245 8.703c.165-.039.467-.045.542.136a1.165 1.165 0 01-.076.61c-.173.528.1 1.386.651 2.7.108.259.348.826.89.6.257-.109 2.339-1.44 2.8-1.725.432-.272.615-.562.408-1.052a33.43 33.43 0 00-2.144-3.867 3.13 3.13 0 01-.273-.432.4.4 0 01.25-.561c.309-.13 3.141-.837 4.246-1.027.28-.058.478-.019.544.136.043.1-.043.26-.133.481a4.107 4.107 0 00.485 1.8l.337.8c.043.1.071.243.126.372.163.387.448.632.887.448.283-.12 1.235-.673 1.693-.957a20.735 20.735 0 011.827-1.072c.491-.207.711-.117 1.526 1.818.89 2.116.864 2.128-.013 2.5l-.567.239c-.492.206-2.626 1.2-2.955 1.425-.4.288-.394.653-.239 1.164 1.062 3.533.848 5.841-2.894 7.416-.412.173-.733.279-1.1-.022a10.666 10.666 0 01-1.652-2.555.507.507 0 01.236-.737c.258-.109.528-.192.785-.3.646-.272 1.056-.6 1.031-1.376a3.677 3.677 0 00-.113-.773.394.394 0 00-.539-.2c-.155.066-.612.35-1.934 1.179-1.661 1.034-1.633 1.174-1.252 2.077l.13.31a25.415 25.415 0 001.608 3.242c1 1.282 2.308.79 3.934.1a32.775 32.775 0 004.429-2.32c.17-.1.68-.407.861-.483.387-.163.631.129 1.033 1.084a6.26 6.26 0 01.74 2.7c-.235.524-4.089 2.268-4.811 2.572a17.416 17.416 0 01-4.822 1.392 5.021 5.021 0 01-4.034-1.644 19.8 19.8 0 01-2.493-4.606c-.163-.387-.426-.793-.942-.576-.309.131-2.546 1.892-3.048 2.286a1.647 1.647 0 01-.314.193c-.36.152-.529.04-1.478-1.778-.312-.6-.645-1.247-.852-1.737-.272-.645 0-.791.569-1.03.49-.207 2.436-1.359 2.971-1.676.628-.386.835-.685.542-1.382a36.565 36.565 0 00-1.728-3.527c-.053-.129-.156-.3-.21-.427-.141-.335.011-.552.321-.682.519-.217 3.68-1.152 4.214-1.256zm8.311 41.612a100.79 100.79 0 011.137-14.118c.377-2.134.832-4.3 1.111-6.453.012-.187.035-.349.241-.436a15 15 0 012.949.582l.445.117c.641.155 1.023.267 1.121.5a.426.426 0 01-.2.539c-.617.412-.563.541-.808 1.4a41.536 41.536 0 00-1.108 4.872 1.04 1.04 0 00-.007.489.416.416 0 00.477.194 2.1 2.1 0 00.38-.251 4.284 4.284 0 01.885-.494c2.246-.946 4.155-.382 5.121 1.915a26.786 26.786 0 011 4.105 6.273 6.273 0 00.286 1.036.492.492 0 00.655.331c.9-.38 2.1-4.317 2.369-5.341.2-.752.312-1.135.647-1.276.517-.217 2.881 2.008 3.077 2.473.207.49-.834 2.781-1.084 3.342-.977 2.082-2.283 4.393-4.5 5.328-2.091.88-3.707-.5-4.49-2.364a18.176 18.176 0 01-.9-3.146 15.155 15.155 0 00-.546-2.018c-.185-.438-.459-.657-.924-.461a4.859 4.859 0 00-1.7 1.444 6.024 6.024 0 00-1.246 3.319 28.661 28.661 0 00.008 6.225c.06.43.12.862-.345 1.057a10.23 10.23 0 01-3.145.108c-.536-.047-.874-.057-.971-.289a26.3 26.3 0 01.065-2.729zm17.498 19.942c-.72.1-.846 0-.973-.714l-1.181-6.535c-.347-1.7-1.094-5.5-1.17-6.055-.065-.472.086-.605.7-.689l3.384-.465c.61-.084.791 0 .856.476.076.554.377 4.384.55 6.48l.609 6.273c.071.725-.025.852-.745.95zm4.335 3.784a2.753 2.753 0 01-2.492 3.253 2.436 2.436 0 01-2.914-2.087 2.79 2.79 0 012.448-3.359 2.531 2.531 0 012.958 2.193z" fill="#006d88"/><path d="M1.5 38.656l18.717 122.748M61.693 1.5l76.495 62.38" fill="none" stroke="#006d88" stroke-linecap="round" stroke-linejoin="round" stroke-width="3"/></g></svg>