<svg xmlns="http://www.w3.org/2000/svg" width="104.795" height="143.618" viewBox="0 0 104.795 143.618"><g data-name="レイヤー 2"><path d="M25.3 58.056a.821.821 0 00-.554.96l1.141 4.246c.2.757.317 1.074 1.183.842l2.244-.6c1-.269 1.037-.888.8-2.507-.069-.474-.082-.847.621-1.036a6.334 6.334 0 012.055-.118c.416.034.8.075.927.534a13.2 13.2 0 01.117 4c-.289 1.73-1.1 2.267-2.7 2.7l-4.083 1.1c-2.6.7-3.722.39-4.456-2.341-.167-.622-.387-1.548-.474-1.872l-1.061-3.948a.8.8 0 00-.96-.555l-2.352.632c-.109.029-.345.122-.3.284s.363.164.913.161a3.436 3.436 0 01.461-.008c.612.009.993.024 1.065.293s-.122.41-.324.523c-.174.1-.241.18-.224.35.143 3.556-1.489 6.546-3.959 9.007a8.792 8.792 0 01-2.03 1.618c-.92.247-2.935-1.212-3.138-1.969-.087-.325.162-.478.39-.6 2.454-1.442 5.625-5.4 4.811-8.424-.08-.3-.206-.554-.747-.409l-2.11.567c-1.189.32-2.33.713-3.52 1.032-.649.175-.783-.108-1.008-.946l-.414-1.541c-.218-.811-.244-1.124.405-1.3.433-.116.873-.206 1.3-.322.108-.029.46-.124.416-.286-.028-.108-.247-.165-.335-.17-.4-.095-1.637-.372-1.753-.8-.044-.162.088-.429.152-.621a27.2 27.2 0 001.661-8.389c0-.32-.011-.578.233-.643a28.123 28.123 0 013.008-.025c.788.02 1.169.033 1.249.331.065.243-.075.368-.3.514-.389.279-.283.888-.254 1a.484.484 0 00.651.376l.649-.174c.622-.167.58-.649.442-1.162l-.131-.487a16.3 16.3 0 00-.509-1.574.734.734 0 01-.092-.236c-.1-.351.161-.478.458-.558.514-.138 2.964-.622 3.6-.735.306-.053.63-.14.7.13.043.163-.11.349-.182.513a1.965 1.965 0 00.079 1.37l.167.622c.123.46.414.788.928.65l3.785-1.017c.974-.262 1.879-.563 2.718-.788.594-.16.721.1.968 1.015l.377 1.406c.226.839.251 1.151-.316 1.3-.92.247-1.853.44-2.773.687l-3.731 1a.766.766 0 00-.555.961l.5 1.838A.782.782 0 0022.1 55l5.138-1.38c1.19-.32 2.338-.686 3.527-1.006.65-.174.784.109 1.009.947l.414 1.541c.218.812.244 1.123-.405 1.3-1.19.319-2.4.558-3.564.87zM16.528 56.5a.8.8 0 00.553-.96l-.494-1.84a.782.782 0 00-.96-.554l-2.163.581c-.622.167-.746.461-.893.994-.184.716-.382 1.494-.62 2.225a.913.913 0 00-.026.441c.079.3.438.231.682.165zm22.449-2.989c-1.027.276-2.047.579-3.075.855-.487.131-.579-.1-.732-.673l-.17-.622c-.116-.433-.12-.664.34-.787 1.027-.276 2.035-.518 3.062-.794.108-.029.271-.072.227-.234-.021-.082-.117-.114-.2-.12-.273-.043-.984-.315-1.064-.612-.073-.27.322-.638.482-.8.133-.151.54-.579.489-.769a.215.215 0 00-.3-.151c-.108.029-2.61 1.077-2.947 1.227-.19.051-.222.146-.259.33a.422.422 0 01-.293.31c-.352.095-.652-.376-1.148-1.141a8.71 8.71 0 01-.553-.982c-.095-.351.453-.47 1.041-.656a168.687 168.687 0 005.2-1.776c.183-.077.411-.2.353-.413a.242.242 0 00-.267-.132l-2.515.676c-.757.2-1.5.461-2.257.665-.351.094-.422-.061-.539-.493l-.2-.73c-.124-.46-.133-.6.246-.7.73-.2 1.494-.372 2.251-.575l2.758-.741a.323.323 0 00.238-.412.332.332 0 00-.42-.264L34.973 44c-.81.218-1.607.49-2.418.708-.378.1-.457-.08-.588-.567l-.21-.785c-.139-.513-.161-.71.244-.819.811-.218 1.61-.374 2.421-.592l3.515-.944a.532.532 0 00.376-.652l-.079-.3c-.1-.379.188-.485.486-.565.377-.1 3.158-.761 3.443-.78.162-.043.392-.047.458.2.044.162-.07.279-.191.37-.273.276-.256.446-.1 1.041l.458 1.7c.8 2.974 1.124 5.264-.745 7.912-.113.117-.22.261-.183.4a.227.227 0 00.3.151l1.137-.3a.659.659 0 00.515-.776c-.014-.054-.063-.128-.077-.183s-.071-.154-.086-.209c-.094-.35.142-.443.439-.523.595-.16 1.421-.323 1.908-.454.676-.182.68-.7.361-1.9l-1.5-5.6a22.356 22.356 0 00-.7-2.161c-.094-.352.2-.433.474-.505a72.996 72.996 0 013.409-.8c.2-.024.536-.057.6.186.051.189-.063.307-.2.431a.321.321 0 00-.1.287.281.281 0 00.344.2l3.416-.911c.784-.211 1.58-.483 2.392-.7.405-.109.483.073.621.587l.269 1c.087.324.1.467-.526.634-.432.116-1.123.244-2.2.534l-3.515.944a.337.337 0 00-.21.405l.021.081a.313.313 0 00.378.218l2.109-.567c.865-.232 1.7-.485 2.535-.71.486-.131.545.085.7.653l.16.595c.16.6.183.792-.276.915-.838.225-1.692.4-2.557.629l-2.109.567a.311.311 0 00-.218.377l.029.108a.312.312 0 00.378.218l3.921-1.054c.784-.21 1.588-.455 2.372-.666.434-.116.5.039.664.634l.225.838c.138.514.169.738-.237.847-.784.21-1.61.374-2.421.592l-3.488.937c-.514.138-.548.553-.432.985.182.677-.1.811-.966 1.043l-1.46.392c-.325.087-.382.306-.346.441a.217.217 0 00.267.131l5.382-1.445c1.027-.277 2.047-.58 3.048-.848.487-.131.564.051.724.646l.152.568c.139.513.17.737-.29.861-1.027.275-2.062.524-3.089.8l-5.395 1.45a.337.337 0 00.174.649l2.814-.759c.811-.218 1.58-.483 2.364-.694.7-.189 1.421-.323 1.654.542.1.379.229 1.069.4 1.719l.218.811c.181.676.409 1.31.518 1.715.225.839-.456 1.109-1.1 1.283-.811.218-1.637.382-2.448.6l-2.812.755a.31.31 0 00-.217.378l.014.054a.31.31 0 00.377.217l6.247-1.678c1.027-.276 2.048-.579 3.048-.848.487-.13.565.051.71.592l.167.623c.138.514.17.737-.29.86-1.028.276-2.063.525-3.09.8l-5.733 1.54a.779.779 0 00-.562.934c.052.189.144.425.2.615.182.676-.156.824-.994 1.049l-1.568.421c-.92.247-1.258.281-1.447-.422-.051-.191-.1-.467-.126-.575a.781.781 0 00-.96-.554l-5.679 1.525c-1 .269-2.022.572-3.049.848-.459.123-.544-.085-.683-.6l-.174-.649c-.138-.514-.162-.71.3-.833 1.027-.276 2.063-.525 3.063-.794l6.192-1.664a.31.31 0 00.218-.377l-.014-.054a.311.311 0 00-.378-.217l-2.785.748c-.812.217-1.608.49-2.392.7-.677.182-1.4.29-1.627-.549-.109-.405-.228-1.068-.41-1.745l-.218-.811c-.174-.649-.41-1.31-.512-1.689-.233-.865.456-1.109 1.159-1.3.784-.21 1.61-.374 2.4-.584l2.784-.749a.317.317 0 00.211-.4.3.3 0 00-.385-.244zm6.058 1.5a.318.318 0 00.245-.384l-.044-.163a.31.31 0 00-.378-.217l-2.488.668a.31.31 0 00-.216.378l.043.162a.311.311 0 00.377.217zm-2.022 2.079a.339.339 0 00-.256.447l.014.054a.353.353 0 00.446.257l2.379-.639a.37.37 0 00.257-.446l-.014-.054a.352.352 0 00-.447-.257zm9-3.953a.311.311 0 00.217-.377l-.044-.162a.311.311 0 00-.377-.219l-2.515.676a.312.312 0 00-.217.378l.043.162a.318.318 0 00.405.21zm-2.077 2.094a.338.338 0 00-.256.446l.014.054a.371.371 0 00.446.257l2.434-.653a.347.347 0 00.23-.439l-.015-.054a.332.332 0 00-.419-.265zM11.06 93.278a1.979 1.979 0 00.044.6 1.663 1.663 0 001.059 1.135c.631.3 1.843.925 1.916 1.2.167.621-.714 3.061-1.336 3.228a5.211 5.211 0 01-1.534-.747.911.911 0 00-.56-.14c-.27.073-.353.414-.4.659a18.678 18.678 0 01-1.656 4.3 1.275 1.275 0 01-.755.754c-.594.16-3.092-.5-3.267-1.153-.072-.27.165-.682.3-.922a18 18 0 001.984-5.026.584.584 0 00.029-.327.378.378 0 00-.454-.285c-.243.066-.292.312-.337.469a.619.619 0 01-.41.313c-.676.181-3.145-.054-3.312-.676-.022-.081 0-.754 0-.958.144-1.836.085-5.3.067-5.9a2.361 2.361 0 00-.022-.516.561.561 0 00-.639-.438l-.244.066c-.6.16-.736-.15-.94-.907L.138 86.3c-.217-.815-.238-1.127.406-1.3.271-.073.737-.169.954-.227a.787.787 0 00.538-.7c.016-.265-.315-2.467-.39-2.852-.167-1.057-.206-1.308.118-1.4.244-.065 2.042-.171 2.516-.241 1.315-.179 1.695-.165 1.79.186a.57.57 0 01-.282.569c-.336.264-.341.352-.218 1.131.053.3.127.691.184 1.227a1.361 1.361 0 00.06.331c.138.515.4.53.863.406.433-.116.858-.26 1.318-.383 1-.268 1.666-.274 1.978.889a34.756 34.756 0 011.087 9.342zM6.551 87.5c-.351.094-.331.5-.3.807.055 1.174.089 2.383.09 3.572a1.241 1.241 0 00.035.453c.065.243.3.586.6.506.541-.145.439-.959.438-1.393a23.322 23.322 0 00-.431-3.653c-.063-.215-.183-.356-.432-.292zM21.7 85.927c1.027-.276 2.006-.626 3.007-.9.73-.2.871.114 1.089.925l.37 1.38c.219.811.251 1.149-.452 1.338-1.027.276-2.042.492-3.07.768l-.4.108c-.649.175-.984.438-.788 1.168l1 3.732c.2.73.446 1.446.643 2.176.857 3.191-1.711 4.316-4.281 5.005-1.081.291-1.516.292-1.968-.311a7.194 7.194 0 01-1.093-2.345c-.124-.46-.137-.833.4-.978a5.9 5.9 0 01.69-.127 8.709 8.709 0 001.185-.232c.946-.254.937-.4.581-1.721l-1.126-4.192a.771.771 0 00-1.063-.613l-.46.124c-1 .269-2.014.6-3.014.867-.73.2-.871-.114-1.089-.925l-.189-.7c-.4-1.487-.487-1.812.3-2.023 1-.268 2.049-.463 3.049-.732l.406-.109c.486-.131.842-.429.7-.97l-.174-.649a22.76 22.76 0 00-.6-1.9.931.931 0 01-.1-.263c-.088-.324.08-.456.377-.536.352-.1.444-.293.859-1.014a5.419 5.419 0 00.7-1.492c-.05-.19-.186-.154-.808.013l-2.541.683c-.92.247-1.79.568-2.629.793-.622.167-.776-.081-.971-.811l-.44-1.619c-.2-.757-.229-1.069.42-1.243.811-.218 1.751-.384 2.671-.631l4.6-1.235c1.055-.283 2.068-.613 3.123-.9a1.735 1.735 0 011.7.3 3.145 3.145 0 01.936 1.111c.291 1.082-2.366 4.9-3.09 5.875a1.806 1.806 0 00-.281 1.757l.181.675a.761.761 0 001.041.533zM33.724 73.39c.545.839.77.924 1.122.829a6.49 6.49 0 001.34-1.056 2.42 2.42 0 01.9-.647c.6-.159 2.2 1.816 2.373 2.465.117.432-.177.743-.451 1.02a13.984 13.984 0 01-1.458 1.261c-.2.14-.51.369-.445.613.044.162.254.511.552.432a10.848 10.848 0 002.395-2.093 1.967 1.967 0 01.743-.577c.406-.109.876.344 1.262.7a5.178 5.178 0 011.435 1.674c.116.432-.325.841-1.155 1.528-.495.422-1.017.853-1.52 1.249a.741.741 0 00-.36.821 2.02 2.02 0 00.551.75 22.659 22.659 0 002.965 2.741c.393.271 1 .689 1.129 1.176.2.729-1.573 2.887-2.276 3.075-.244.066-.442-.026-.888-.283a6.927 6.927 0 00-4.885-.485c-.785.21-1.963.788-1.7 1.788.4 1.487 2.926 1.07 4.008.779a17.994 17.994 0 001.748-.614c.29-.107.735-.284.871-.321.649-.174.9.222 1.2 1.357.69 2.569.238 2.72-.573 2.937a26.446 26.446 0 01-4.392.919c-2.951.242-5.835-.78-6.67-3.89-.879-3.272 1.269-5.531 4.27-6.337a9.219 9.219 0 011.5-.257l.108-.029a.424.424 0 00.3-.488 1.919 1.919 0 00-.465-.542.68.68 0 00-.669-.226 1.678 1.678 0 00-.256.127 38.544 38.544 0 01-6.7 3.106c-.487.13-.729-.123-1.022-.567a9.54 9.54 0 01-1.2-2.4c-.1-.378-.045-.6 1.049-.948a35.05 35.05 0 005.34-2.185.421.421 0 00.243-.5.514.514 0 00-.537-.378 2.822 2.822 0 00-.329.176 22.5 22.5 0 01-3.269 1.428c-.46.124-.668-.111-.939-.472a10.241 10.241 0 01-1.269-2.24c-.109-.405.054-.768.777-.992.4-.136 1.115-.386 1.634-.612.464-.212.718-.454.61-.86a2.3 2.3 0 00-.6-.709 3.463 3.463 0 01-.881-1.01c-.116-.433.657-.9.979-1.1A9.7 9.7 0 0132.3 72.41c.7-.189.921.19 1.424.98zm12.363.477c-.225-.839.065-.945 3-1.906.534-.173 1.148-.367 1.891-.624 3.349-1.132 10.951-4.131 14.083-5.64a1.1 1.1 0 01.263-.1c.487-.131.67.226.916.711a19.487 19.487 0 011.157 2.907c.139.514-.158.594-1.314.933a11.4 11.4 0 00-3.736 1.526 8.7 8.7 0 00-3.476 9.4c.69 2.569 2.23 2.909 4.61 2.269.676-.181 1.547-.5 1.925-.6.514-.137.725-.108.863.407a12.689 12.689 0 01.39 3.287c-.071.6-.428.782-1 .934-5 1.344-9.542 1.172-11.111-4.669a11.749 11.749 0 01.473-7.52.791.791 0 00.054-.449.439.439 0 00-.6-.275 9.827 9.827 0 00-1.395.636c-1.361.655-3.117 1.562-4.415 2.345a1.848 1.848 0 01-.364.156c-.568.153-1.084-1.014-1.444-1.815a15.106 15.106 0 01-.77-1.913zm19.161-.335a12.5 12.5 0 012.552 2.156c.145.541-1.09 1.772-1.36 1.845-.135.036-.212-.03-.708-.477-.725-.646-1.455-1.2-2.253-1.8a.481.481 0 01-.215-.261c-.1-.379 1.2-1.6 1.493-1.677.134-.037.343.108.491.214zm5.65-.444c.145.54-1.055 1.791-1.353 1.871-.189.05-.389-.157-.507-.27a21.867 21.867 0 00-2.363-1.889c-.11-.086-.288-.212-.325-.347-.094-.352 1.168-1.59 1.492-1.677a10.548 10.548 0 013.058 2.312zm11.878-14.063c.224-.031.652-.06.7.13.022.081-.037.184-.124.294a1.154 1.154 0 00-.215.928c.046.277.172.852.281 1.258.189.7.332 1.128 1.143.911 2.137-.574 4.2-1.418 6.336-1.992.406-.109.765-.176 1.274 1.716a11.9 11.9 0 01.382 2.072c-.023.238-.075.368-.319.433-.135.037-3.106.632-3.952.83-.9.213-1.819.46-2.738.707a.747.747 0 00-.567 1.022l.175.648a2.489 2.489 0 00.778 1.386 9.228 9.228 0 011.711 3.455c1.169 4.353-.416 10.433-1.8 10.8a7.745 7.745 0 01-2.386-.142c-.845-.121-1.547-.251-1.649-.63-.065-.244.2-.662.365-.91.383-.625 1.354-2.19 1.238-2.623-.08-.3-.338-.286-.581-.22-2.5.614-4.2-1.945-4.763-4.026-.647-2.407-.236-5.3 2.256-6.492.182-.078.5-.193.435-.436-.037-.135-.182-.241-.425-.176-.3.08-2.213.827-2.631 1-.628.256-4.247 1.894-4.751 2.175a3.629 3.629 0 01-.465.212c-.433.116-.735-.47-1.306-2.056-.32-.87-.514-1.485-.572-1.7-.11-.406.011-.5.653-.7 2.431-.769 4.814-1.611 6.949-2.3.7-.216 1.3-.437 1.063-1.329a22.183 22.183 0 00-1.035-2.883.761.761 0 01-.085-.209.379.379 0 01.3-.514c.49-.131 3.682-.553 4.325-.639zm-1.093 14.818c.131.487.618 1.865 1.347 1.668s.557-1.6.411-2.14c-.152-.567-.58-1.729-1.365-1.518-.73.196-.538 1.447-.393 1.99zm20.517 2.19a2.752 2.752 0 01-2.909 2.885 2.436 2.436 0 01-2.605-2.462 2.79 2.79 0 012.882-3 2.53 2.53 0 012.632 2.577zm-3.78-4.338c-.727 0-.84-.111-.868-.838l-.284-6.635c-.113-1.735-.338-5.6-.338-6.158 0-.476.167-.588.783-.589h3.415c.616 0 .784.112.784.588 0 .56-.221 4.4-.333 6.495l-.248 6.3c-.027.727-.139.839-.867.84z" fill="#006d88"/><path d="M35.854 1.5L99.07 24.777M35.854 142.118l67.441-43.796" fill="none" stroke="#006d88" stroke-linecap="round" stroke-linejoin="round" stroke-width="3"/></g></svg>