<svg xmlns="http://www.w3.org/2000/svg" width="156.187" height="130.161" viewBox="0 0 156.187 130.161"><g data-name="レイヤー 2"><path d="M120.177 7.8c1.013.479 2.086.894 3.1 1.375.633.3.563.576.217 1.309l-.576 1.215c-.36.759-.53.988-1.162.688-1.038-.49-2.026-1.021-3.039-1.5l-12.93-6.124a.767.767 0 00-1.045.372l-2.924 6.176a41.433 41.433 0 01-4.672 7.639 18.552 18.552 0 01-2.09 2.387.629.629 0 01-.576.038c-.506-.24-2.66-2.035-2.3-2.794a2.577 2.577 0 01.441-.473c2.332-2.242 4.855-6.654 6.245-9.59l2.3-4.859c.431-.91.813-1.846 1.232-2.732.491-1.037 1.09-1.125 2.053-.669.859.407 1.71.9 2.569 1.31l3.493 1.653a.793.793 0 001.081-.385 6.311 6.311 0 00.236-.695c.036-.076.058-.189.082-.24.168-.353.445-.284.723-.152a6.561 6.561 0 01.635.362c.672.411 2.243 1.279 2.8 1.668a.408.408 0 01.211.534.352.352 0 01-.283.207.8.8 0 00-.506.349c-.144.3 0 .651.407.9zm-22.1 14.875c-.2.155-.357.3-.534.212-.3-.144-.261-.5-.207-.935.041-.414.276-2.873.36-3.051.132-.278.41-.146.7-.04.479.165 1.034.366 1.321-.241l4.039-8.527c.335-.709.6-1.391.9-2.024a1.11 1.11 0 011.727-.639l.227.109a.671.671 0 00.858-.307c.072-.151.191-.468.275-.644.156-.329.382-.284.66-.152.658.311 1.938 1.01 2.585 1.41.584.338.938.506.807.784-.061.127-.235.168-.347.209-.211.053-.312.068-.4.246a.527.527 0 00.265.683l.178.084a1.119 1.119 0 01.626 1.752c-.312.658-.686 1.317-1 1.975l-1.7 3.594c-.312.658-.56 1.377-.788 1.857-.251.532-.5.412-.87.27a.521.521 0 00-.673.176 1.713 1.713 0 00-.076.553 30.788 30.788 0 01-.276 4.641c-.324.683-2.283.436-2.713.233-.33-.156-.273-.471-.229-.759.043-.352.058-.778-.322-.958a2.523 2.523 0 00-.917-.155 64.284 64.284 0 01-4.106-.489.549.549 0 00-.371.137zm6.7-5.378a.764.764 0 00-1.044.374l-.707 1.492c-.108.228-.141.492.138.623s.732.223.9-.132a1.635 1.635 0 00.052-.5.587.587 0 01.018-.3c.156-.329 1.072-.3 1.41-.294a.208.208 0 00.235-.1.189.189 0 00-.041-.175 1.174 1.174 0 01-.056-.273c.008-.214.007-.277-.171-.361zm2.427-2.445a.369.369 0 00-.173-.484l-1.113-.527a.346.346 0 00-.459.185l-.1.2a.323.323 0 00.16.448l1.113.527a.346.346 0 00.472-.148zm3.585 9.506c-.5 1.063-.931 2.161-1.434 3.224-.311.658-.539.612-1.271.265l-1.317-.624c-.683-.323-.912-.494-.624-1.1.515-1.089 1.094-2.114 1.61-3.2l4.5-9.515c.384-.811.7-1.619 1.076-2.4.528-1.114 1.131-1.014 1.839-.678.684.323 1.343.7 2.027 1.021l1.366.647c.557.264.96.393 1.315.56a2.6 2.6 0 011.255 1.928 2.049 2.049 0 01.089 1.251 41.31 41.31 0 01-3.669 2.971 1.211 1.211 0 00-.319.283c-.048.1.072.436.112.549a7.312 7.312 0 01-.021 5.473c-1.21 2.556-3.3 2.65-5.654 1.536-.582-.276-1.341-.7-.359-2.773.372-.784.578-1.09 1.262-.765.177.084.342.193.493.264.633.3.918.157 1.218-.476.743-1.57-.3-4.14-.479-4.224-.2-.1-.3.107-.395.246zM108.652 11.8a.31.31 0 00-.147-.41l-1.189-.564a.309.309 0 00-.409.147l-.12.254a.317.317 0 00.134.435l1.189.563a.338.338 0 00.423-.172zm6.018 4.368c-.144.3-.166.416-.015.488a6.67 6.67 0 002.034-1.547c.119-.252-.412-.5-.563-.576a.541.541 0 00-.785.218zm-12.316 16.778a.765.765 0 00-1.045.373l-.539 1.139c-.432.91-.337 1.233.27 2.048a56.714 56.714 0 014.274 6.609c.326.619.443.83.287 1.158-.287.608-2.838 2-3.521 1.679a1.213 1.213 0 01-.451-.616c-.341-.72-2.655-5.254-3.06-5.447-.3-.143-.447.161-.544.364l-2.84 6c-.611 1.291-1.134 2.593-1.745 3.883-.323.683-.638.628-1.523.208l-1.7-.8c-.961-.455-1.241-.649-.905-1.358.6-1.266 1.286-2.52 1.9-3.811l6.124-12.931a.8.8 0 00-.374-1.044l-4.1-1.941c-1.139-.539-2.314-1-3.452-1.543-.684-.323-.59-.65-.183-1.512l.7-1.466c.4-.836.59-1.116 1.273-.792 1.14.54 2.242 1.155 3.381 1.694l14.347 6.8c1.139.539 2.314 1 3.453 1.542.658.311.565.639.169 1.474l-.707 1.493c-.407.861-.589 1.115-1.248.8-1.138-.539-2.241-1.154-3.379-1.693zm-21.837 19.09c.612-.7 1.139-1.227 1.737-1.966.158-.2.354-.421.607-.3s2.591 2.838 2.95 3.256.441.642.368.794-.2.154-.347.145a2.264 2.264 0 00-1.776.74 21.456 21.456 0 00-5.1 6.847c-.252.531-.5 1.063-.25 1.182.2.1.361-.045.509-.161.541-.487.836-.72 1.064-.611.354.168 1.25 1.614 1.07 1.993-.216.455-2.951 2.568-3.766 4.289-.131.278-.285.732-.4 1.048a3.291 3.291 0 01-.189.469c-.323.682-1.288.69-1.953.654a4.858 4.858 0 01-1.447-.281c-.455-.216-.491-.73-.5-1.417a20.606 20.606 0 012.277-8.868 35.648 35.648 0 015.146-7.813zM95.8 56.545c.113.085.292.231.208.409a.968.968 0 01-.418.359 4.4 4.4 0 00-1.511 2.011.59.59 0 00.269.871 17.818 17.818 0 002.077.456 4.5 4.5 0 01.73.16c.38.18.241.735.138 1.15a11.915 11.915 0 01-.692 2.244c-.3.633-.587.651-3.55-.287-.593-.189-.931-.194-1.231.439a258.54 258.54 0 00-1.776 4.208c-.237.632-.034.791.443 1.419a16.139 16.139 0 011.8 3.206 1.664 1.664 0 01.079 1.338c-.336.708-2.343 1.74-3.1 1.381-.379-.18-.6-.687-.895-1.446-.054-.149-.119-.273-.172-.422a.859.859 0 00-.362-.544c-.228-.108-.364-.016-.673.178-1.383.894-3.347.46-4.738-.2-2.3-1.089-4.067-3.319-2.832-5.926 1.174-2.48 3.839-2.612 6.066-1.557l.582.275a.611.611 0 00.906-.344c.277-.582.713-1.831.905-2.237.408-.86.5-1.313-.059-1.577-.455-.216-2.25-.941-3.313-1.444l-.378-.18c-.582-.275-1.065-.566-1.146-.852a13.719 13.719 0 011.114-2.943c.157-.328.4-.646.805-.455.152.071.9.52 1.116.653.989.592 2 1.134 3.016 1.614.4.191.806.2 1.021-.261.251-.531 1.16-3.168 1.423-3.725.144-.3.305-.381.61-.238.521.252 2.947 1.865 3.538 2.267zM82.812 69.171c-.239.507.45 1.142.982 1.394.582.276 1.235.337 1.558-.345.239-.506-.533-.9-.913-1.083s-1.363-.523-1.627.034zM61.753 39c.67-1.417.86-1.947.379-2.175l-4.859-2.3c-1.113-.527-2.251-1.005-3.364-1.532-.608-.287-.515-.615-.179-1.323l.611-1.291c.384-.81.567-1.064 1.174-.777 1.114.528 2.2 1.106 3.317 1.633l4.656 2.205a.78.78 0 001.043-.373l.36-.759a.8.8 0 00-.373-1.043l-2.151-1.019c-1.088-.516-2.237-.967-3.351-1.494-.608-.288-.514-.615-.167-1.35l.659-1.391c.348-.734.542-1.014 1.15-.726 1.113.527 2.191 1.13 3.279 1.646l2.151 1.019a.747.747 0 001.08-.449c.2-.431.55-1.228.679-1.631a1.389 1.389 0 01.107-.291c.155-.328.419-.3.7-.165.43.2 2.473 1.45 2.98 1.753.242.144.7.424.542.752-.047.1-.109.166-.346.208-.474.086-.631.351-.931.984-.252.531-.305.972.277 1.247l2.152 1.019c1.113.527 2.237.967 3.35 1.494.608.287.514.615.166 1.349l-.659 1.391c-.347.735-.541 1.014-1.148.727-1.114-.528-2.166-1.118-3.28-1.646L69.6 33.671a.8.8 0 00-1.044.373l-.359.76a.781.781 0 00.373 1.043l4.783 2.265c1.088.516 2.226.992 3.339 1.52.607.287.526.59.142 1.4l-.611 1.291c-.335.708-.53.987-1.138.7-1.113-.527-2.2-1.1-3.291-1.62l-4.529-2.145c-.278-.132-.353-.106-.536.148-.108.166-.108.166-.32.221a.815.815 0 00-.6.488c-.143.3-.138.617.193.774l2.732 1.293c.986.468 2 .884 2.984 1.352.582.275.537.5.226 1.16l-.767 1.62c-.312.657-.459.835-1.041.56-.986-.468-1.949-.985-2.936-1.452l-2.53-1.2a.8.8 0 00-1.044.372l-.456.961c-.288.609.219.91 1.941 1.725l1.644.779c1.392.66 2.809 1.33 4.238 1.913.29.108.669.224.971.368.532.252.291.757-.091 1.568-.887 1.872-1.487 1.96-2.4 1.654-.29-.107-1.252-.562-2.238-1.029l-3.392-1.606a36.281 36.281 0 01-5.067-2.71 9.451 9.451 0 01-3.549-4.871c-.053-.15-.135-.436-.287-.508-.252-.12-.782.28-.967.409-.556.388-3.027 1.942-3.584 1.68s-1.919-2.489-1.632-3.1c.109-.228.407-.335.667-.428a15.956 15.956 0 007.115-5.863c.206-.306.366-.446.72-.278a19.568 19.568 0 011.691 1.2c1.286.949 1.539 1.069 1.371 1.423a.5.5 0 01-.509.224c-.451-.028-.562.075-.951.634a5.051 5.051 0 01-.476.612 1.611 1.611 0 00-.291.419c-.551 1.164.624 3.394 1.13 3.633.329.156.484-.173.63-.414zm.019 18.535a.539.539 0 01-.445.223A23.724 23.724 0 0057 58.84a.733.733 0 00-.444.347.623.623 0 00.33.807c.076.036.19.059.29.106a9.3 9.3 0 011.628 1.143 6.6 6.6 0 011.636 7.994c-2.289 4.833-7.6 5.26-12.006 3.175-2.379-1.127-5.137-3.61-3.759-6.521a4.1 4.1 0 015.462-1.72A4.688 4.688 0 0152.875 69a.777.777 0 00.379.769c.607.288 2.421-.4 3.212-2.072 1.019-2.151-.272-3.94-2.22-4.863a8 8 0 00-5.807-.364 37.215 37.215 0 00-4.623 1.714c-.57.289-.855.37-.957.322-.582-.277-1.574-3.285-1.346-3.767.144-.3.505-.412 1.228-.564.872-.207 7.051-2.393 8.344-2.834.708-.253 1.3-.529 1.961-.806.261-.093.51-.161.629-.414.145-.3-.236-.547-.337-.595-.077-.036-3.074-.836-3.78-1.046a1.312 1.312 0 01-.315-.119c-.583-.275.62-3.207.848-3.687l.12-.253c.179-.38.255-.344.989 0l.582.276c1.657.753 5.407 2.189 7.138 2.264a4.317 4.317 0 011.279.111c1.088.516 1.837 3.906 1.573 4.463zm-12.936 9.457a.806.806 0 00-1.133.3c-.323.682.381 1.419.963 1.694a.66.66 0 00.9-.256 1.4 1.4 0 00-.73-1.738zm-1.728 8.817c.268.219.5.454.427.605-.061.126-.3.169-.7.227-.2.03-.822.82-1.126 1.2a1.178 1.178 0 00-.147.178c-.036.077-.109.165-.157.267a.393.393 0 00.136.5 2.832 2.832 0 00.628.111 1.494 1.494 0 01.478.1c.229.107.244.269.175.547a27.327 27.327 0 01-.993 2.752c-.276.582-.678.514-2.821-.066-.957-.267-1.065-.1-1.753.564-.981.961-2 1.871-3.047 2.77-1.366 1.181-2.768 2.376-4.235 3.447-.37.258-.814.543-1.11.775a.587.587 0 01-.737.116c-.86-.407-2.786-2.62-2.475-3.278a4.789 4.789 0 011.012-.761c.913-.621 6.056-4.351 6.356-4.983a.443.443 0 00-.251-.583 11.339 11.339 0 00-.871-.32c-.291-.106-.846-.307-1.149-.451-.533-.252-.652-.588.19-2.822.07-.215.235-.694.343-.922.168-.355.419-.359.721-.216.431.2 1.014.542 1.571.806 2.3 1.091 2.656 1.2 3.22.658a18.659 18.659 0 002.491-3.623c.095-.2.191-.405.369-.321.332.16 3.009 2.356 3.455 2.723zm-.372 9.552c.383.3.526.59.31 1.045-.12.253-.386.686-.6 1.141-.6 1.264-1.085 2.552-1.6 3.829-.261.619-.207.831.268 1.334.576.614 3.057 3.617 2.722 4.326-.263.556-2.664 1.961-3.473 1.577-.2-.1-.448-.492-.8-1.185-.092-.2-.183-.4-.3-.608a.634.634 0 00-.332-.344.62.62 0 00-.76.166 4.974 4.974 0 01-1.424.783 4.878 4.878 0 01-3.518-.489c-2.4-1.138-4.357-3.488-3.063-6.222 1.2-2.53 3.94-2.564 6.192-1.5l.2.095a.617.617 0 00.9-.319c.2-.431 1.043-2.79 1.326-3.586a10.412 10.412 0 01.463-1.236c.251-.532.55-.639 1.105-.375a16.269 16.269 0 012.384 1.568zm-8.828 7.127a.943.943 0 00.577 1.2c.582.277.929.069 1.18-.463.156-.329.261-.619-.472-.966-.43-.203-1.046-.277-1.285.229zm14.506-8.125c.33.807 1.2 3.08.953 3.611-.371.786-3.248 1.561-3.881 1.261-.3-.143-.352-.632-.4-.993a17.8 17.8 0 00-1.617-4.764c-.131-.247-.3-.544-.2-.747.192-.4 2.794-1.713 3.5-1.377.483.228 1.419 2.438 1.645 3.009zm-26.077 34.909a2.753 2.753 0 01-4.085.314 2.436 2.436 0 01-.39-3.564 2.792 2.792 0 014.138-.416 2.531 2.531 0 01.337 3.666zm-.071-5.753c-.555-.471-.567-.629-.118-1.2l4.082-5.237c1.038-1.4 3.369-4.484 3.732-4.911.307-.363.508-.339.977.059l2.6 2.211c.469.4.525.593.216.955-.362.427-3.015 3.2-4.461 4.733l-4.269 4.637c-.492.537-.65.549-1.2.079z" fill="#006d88"/><path d="M10.799 44.836L1.5 115.602m64.938 13.059l88.249-58.016" fill="none" stroke="#006d88" stroke-linecap="round" stroke-linejoin="round" stroke-width="3"/></g></svg>