<svg xmlns="http://www.w3.org/2000/svg" width="141.913" height="196.952" viewBox="0 0 141.913 196.952"><g data-name="レイヤー 2"><path d="M61.072 35.48c-.973.266-1.922.614-2.894.88-.675.186-.8-.158-.955-.725l-.021-.081a.8.8 0 00-.993-.657c-.081.023-.155.071-.263.1-.783.215-1.378.378-1.577-.351-.1-.378-.216-1.1-.363-1.642l-.178-.649c-.223-.809-.522-1.685-.6-1.956-.281-1.026.792-1.349 1.548-1.557 1.026-.281 2.094-.516 3.12-.8l3.673-1.007c.485-.134.812-.427.663-.967s-.419-1.1-.463-1.266c-.1-.351.194-.46.49-.541.73-.2 2.272-.507 3.042-.66a1.607 1.607 0 00.359-.07c.527-.087.913-.163 1 .161.037.135-.069.28-.194.459a1.038 1.038 0 00-.042.8c.155.567.706.562 1.165.436l3.59-.985c1.027-.282 2.065-.625 3.091-.906.756-.208 1.871-.485 2.153.541.051.19.229 1.157.459 1.994l.2.729c.163.594.422 1.22.525 1.6.178.648-.2.841-1.015 1.063l-.513.141a.808.808 0 00-.663.965l.029.108c.178.648.171.941-.478 1.119-.972.266-1.939.444-2.912.711l-3.105.852a.37.37 0 00-.254.447l.045.162a.37.37 0 00.446.255l2.323-.637c.972-.267 1.929-.587 2.9-.854.648-.178.776.077.984.833l.289 1.054c.215.783.235 1.068-.414 1.245-.971.267-1.959.479-2.93.746L70 37.213c-.459.125-.458.444-.421.58.1.378.454.281.644.23l5.859-1.608c1.053-.288 2.092-.631 3.144-.92.649-.178.776.077 1.013.941l.3 1.107c.192.7.213.987-.435 1.165-1.053.289-2.122.524-3.174.813l-3.13.859c-.351.1-.594.163-.52.433.1.351 1.425.538 1.794.611a18.982 18.982 0 005.574.213c.59-.075 1.077-.208 1.246.413a3.991 3.991 0 01-.127 2.184c-.312.87-.459 1.287-1.027 1.442a4.271 4.271 0 01-1.023.078 22.247 22.247 0 01-5.622-.49 13.81 13.81 0 01-4.033-1.681 1.352 1.352 0 00-.909-.245c-.3.082-.492.426-.623.694a17.178 17.178 0 01-6.866 6.3 12.673 12.673 0 01-1.573.721c-1.027.282-2.324-1.8-2.487-2.395-.177-.649.389-.8 1.29-1.225a15.686 15.686 0 004.831-3.241c.16-.16.669-.735.618-.925-.067-.242-.318-.2-.668-.107l-3.082.84c-1.053.289-2.119.639-3.171.927-.621.171-.742-.057-.964-.867l-.3-1.08c-.23-.837-.241-1.095.406-1.273 1.054-.288 2.121-.524 3.174-.813l5.481-1.5c.379-.1.455-.357.4-.573-.073-.27-.292-.326-.535-.259l-2.053.563c-.972.266-1.9.58-2.874.846-.675.185-.81-.1-1.033-.907l-.274-1c-.208-.756-.2-1.048.448-1.226.971-.267 1.959-.479 2.9-.739l2.431-.666a.373.373 0 00.254-.448l-.044-.162a.371.371 0 00-.448-.255zm2.288-3.937c.27-.075.483-.25.4-.547-.17-.621-.285-.822-.851-.666L58.4 31.567c-.3.081-.517.229-.421.58.156.567.3.76.89.6l.054-.015c.432-.119.871-.21 1.3-.329zm7.858-2.156c.54-.148 1.072-.324 1.612-.472.567-.155.52-.433.387-.919-.1-.378-.37-.392-.693-.3L68.5 28.8c-.216.059-.351.1-.306.257l.037.136c.052.189-.081.341-.22.466-.094.084-.16.161-.123.3.044.162.2.294.548.2zm-7.437 26.979c0-.55-.011-1.1-.049-1.554-.059-.536-.1-.786.252-.882a36.042 36.042 0 014.4.362c.606.094.813.212.85.347.03.108-.037.184-.13.268a1.7 1.7 0 00-.7 1.381 22.57 22.57 0 00.457 8.121c.407 1.485.608 2.214.958 2.118.19-.052.266-.305.341-.558.088-.315.168-.656.466-.738a2.586 2.586 0 011.766.938c.1.378-.514 2.783-.114 4.242.052.189.291.849.456 1.239a8.028 8.028 0 01.3.761c.274 1-1.509 2.33-2.346 2.56-.513.14-.852-.144-1.605-.983a20.2 20.2 0 01-4.11-8.188 34.423 34.423 0 01-1.192-9.434zm7.64-2.211a5.63 5.63 0 01.866-.122 20.406 20.406 0 003.669-.6A17.211 17.211 0 0079.8 51.8a2.464 2.464 0 01.517-.229c.514-.141.831.382 1 .772a21.131 21.131 0 01.77 2.17c.177.648.148.859-.525 1.16a33.324 33.324 0 01-4.447 1.569c-.81.222-4.573 1.109-5.2.817-.268-.13-.49-.939-.571-1.237-.554-2.001-.572-2.489.077-2.667zm3.26 11.677a4.374 4.374 0 004.277.772 22.718 22.718 0 005.678-2.486 2.7 2.7 0 01.618-.285.631.631 0 01.7.445 27.859 27.859 0 01.905 2.771c.1.352.121.547-.185.806-.82.718-5.218 2.36-6.433 2.693-4.348 1.193-6.857-.441-7.027-1.062-.142-.513.461-3.611 1.082-3.781.137-.037.282.068.385.127zm-30.289 1.456c.408 1.486-1.547 3.038-2.465 3.29-.594.162-.9-.217-1.37-.757-.675-.773-2.261-1.79-2.882-1.619a1.591 1.591 0 00-.785.738c-.164.248-.407.634-.568.679-.6.163-3.01-2.4-3.181-3.019-.088-.324.125-.5.405-.75.579-.536 4.234-4.355 4.435-4.787a1.677 1.677 0 00-.051-1.032l-.288-1.053a.649.649 0 00-.806-.505c-.109.03-.727.316-.882.387a10.572 10.572 0 01-1.452.631c-.54.148-1.088.269-1.859-2.539-.281-1.026-.3-1.08.743-1.423q1.164-.363 2.3-.807a.911.911 0 00.6-.57 9.888 9.888 0 00-.478-2.482l-.126-.459c-.155-.567-.373-1.146-.417-1.309a.392.392 0 01.287-.543c.594-.163 3.4-.321 4.189-.394.258-.012.55-.005.609.21.037.135-.095.288-.188.372a1.476 1.476 0 00-.3 1.127c.055.623.112 1.044.135 1.125a.556.556 0 00.661.4 6.151 6.151 0 00.8-.48 3.038 3.038 0 01.678-.389c.459-.126.865.4 1.261 1.426a16.292 16.292 0 01.572 1.555c.185.675-.1.783-2.269 1.784a.855.855 0 00-.572 1.086c.1.379.3.673.732.554a2.658 2.658 0 00.576-.332 12.246 12.246 0 013.455-1.587c3.322-.911 6.965.093 7.965 3.738a5.541 5.541 0 01-1 4.921c-1.134 1.472-3.684 2.55-5.439 3.031-.73.2-1.3.355-1.624.009a7.8 7.8 0 01-1.158-2.415c-.133-.486-.227-1.041.367-1.2.161-.045.778-.127.974-.152.331-.062.852-.176 1.149-.257 1.161-.318 3.044-1.183 2.637-2.669a2.282 2.282 0 00-2.972-1.3 9.818 9.818 0 00-3.847 2.275 1.2 1.2 0 00-.1 1.014c.088.324.373 1.146.488 1.463.177.526.969 2.69 1.061 3.014zm-4.559-.956c-.089-.324-.212-.667-.454-.6-.217.06-.4.342-.526.522a.412.412 0 00-.127.383c.059.216.162.275.738.465a.852.852 0 00.368.073c.189-.051.172-.221.127-.383zM50.469 50.7c.761.343 1.956.886 2.678 1.3.2.091.44.227.5.444.193.7-.917 3.009-1.591 3.194a1.125 1.125 0 01-.752-.2 48.216 48.216 0 00-4.66-2.061c-.355-.135-.7-.242-.786-.539a4.223 4.223 0 01.6-1.821c.039-.068.071-.164.11-.233.248-.475.507-1.01.831-1.1.462-.129 2.575.801 3.07 1.016zM48.748 73c.272.042.5.124.55.313.045.163-.049.246-.169.337-.38.308-.567.475-.616 1.563l-.079 1.618a1.183 1.183 0 00.01.462c.149.54.556.544 1.435.362q.995-.186 1.967-.453c.513-.141.837-.23 1 .364a12.823 12.823 0 01.253 2.515c0 .754-.064 1.034-.469 1.145a29.928 29.928 0 01-3.445.567.537.537 0 00-.223.033c-.621.17-.588.713-.556 1.255l.006.231a2.457 2.457 0 00.064.447c.193.7.929.529 2.873-.005.729-.2 1.169-.291 1.3.168a9.887 9.887 0 01.224 2.726c-.032.618-.14.968-.788 1.145a22.2 22.2 0 01-2.309.372.48.48 0 00-.2.025c-.566.156-.473.71-.384 1.035l.044.162a3.835 3.835 0 00.86 1.651 3.009 3.009 0 002.9.511 6.624 6.624 0 002.738-1.448 2.024 2.024 0 00.383-1.992 13.836 13.836 0 00-1.854-3.585 1.9 1.9 0 01-.306-.584c-.1-.351.056-.538.75-1.077a9.906 9.906 0 012.112-1.189c.487-.133.755.316 1.262 1.106a16.854 16.854 0 012.183 4.569 5.339 5.339 0 01-1.137 5.277 10.769 10.769 0 01-5.116 2.942c-4.644 1.274-7.788-.767-9.04-5.331-.089-.323-.231-1.155-.246-1.21-.163-.594-.63-.61-1.045-.642-1.954-.132-2.364-.252-2.5-.738a9.339 9.339 0 01-.125-1.939c0-.754-.029-1.589.565-1.752a1.576 1.576 0 01.872.109 2.841 2.841 0 001.3.167c.215-.059.456-.24.435-.846a6.642 6.642 0 00-.048-.915c-.133-.486-.517-.613-.966-.664-2.437-.2-2.626-.471-2.737-.875-.156-.567-.256-3.473.527-3.687a2.224 2.224 0 011.105.219 5.469 5.469 0 001.624.31c.433-.119.479-.48.476-.915.008-.815.043-2.276.024-3.4-.01-.462-.028-.631.215-.7a38.881 38.881 0 014.301.241zm4.009 27.533c.231-.006.638 0 .7.215a.273.273 0 01-.131.268c-.365.361-.33.7-.28 1.412a52.547 52.547 0 001.906 10.336c.585 2.134 1.186 4.321 3.346 3.728A6 6 0 0062.013 113a9.155 9.155 0 00.655-4.389c-.04-.569-.093-1.078.366-1.2a3.979 3.979 0 012.141.6c.6.3 1.614.8 1.8 1.48a10.5 10.5 0 01-.25 3.64 9.942 9.942 0 01-7.027 7.618 6.829 6.829 0 01-5.818-.785c-1.824-1.358-2.771-4.175-3.364-6.336-.851-3.105-1.493-6.5-2.077-9.476a25.33 25.33 0 00-.5-2.128c-.162-.594-.259-.945.2-1.071.623-.166 3.702-.372 4.618-.42zm14.53 25.136c.06.216-.112.437-.218.582a32 32 0 00-2.832 4.493.509.509 0 00-.057.423.374.374 0 00.473.247c.243-.066.451-.153.668-.212a6.811 6.811 0 018.853 4.859c.977 3.564-.772 6.4-3.605 8.451a18.288 18.288 0 01-4.673 2.443c-.54.148-.817-.124-1.364-.846a10.863 10.863 0 01-1.324-2.075c-.17-.621.354-.823.923-.979l.566-.155a8.833 8.833 0 004.559-2.645 3.277 3.277 0 00.752-3.081c-.548-2-2.712-2.478-4.495-1.989a7.671 7.671 0 00-4.979 4.182 20.256 20.256 0 00-1.354 4.058c-.056.22-.129.588-.373.655a5.7 5.7 0 01-2.277-.682c-.693-.3-1.324-.595-1.443-1.027-.089-.324.058-.741.4-1.5.884-2.071 1.912-4.357 2.881-6.538.316-.755 1.261-2.814 1.592-3.515a.437.437 0 00.072-.368.389.389 0 00-.508-.267c-.027.007-2.709 1.237-3 1.346a.807.807 0 01-.236.093c-.351.1-.6-.272-.752-.52a12.181 12.181 0 01-1.207-2.6c-.2-.729-.072-.793.758-1.05 2.226-.669 5.634-1.894 7.29-3.481a1.883 1.883 0 01.675-.5c.892-.254 4.036 1.469 4.235 2.198zm-3.621 28.605c.284-.02.6-.021.671.223.029.108-.03.211-.182.4a1.98 1.98 0 00-.187 1.329 20.546 20.546 0 00.686 3.876 13.009 13.009 0 002.394 4.918c.342.4 1.065 1.13 1.659.967.621-.17.938-1.447 1.063-1.946.1-.376.247-.793.652-.905.81-.222 3.23.769 3.408 1.417s-.672 2.42-.99 3.059c-.657 1.312-1.357 2.462-2.842 2.87-1.809.5-3.712-.405-5.1-1.535-2.768-2.26-4.039-6.15-4.95-9.472-.141-.512-.929-3.81-1-4.2a.42.42 0 01.34-.558c.35-.093 3.665-.393 4.378-.443zm9.645-3.575c.73-.2 3.322.889 5.036 2.48a15.249 15.249 0 013.516 4.988c.173.417.432 1.043.521 1.367.155.567.087.847-.409 1.157a9.683 9.683 0 01-2.439 1.163c-1 .274-1.122-.069-1.485-1.074-1.131-3.174-2.97-5.427-6.038-6.56-.2-.091-.337-.169-.4-.385-.167-.622.887-2.913 1.698-3.135zm7.012 43.353a2.752 2.752 0 01-2.893 2.9 2.436 2.436 0 01-2.619-2.448 2.791 2.791 0 012.867-3.012 2.53 2.53 0 012.645 2.56zm-3.8-4.317c-.727 0-.839-.107-.873-.835l-.318-6.633c-.122-1.735-.368-5.6-.371-6.156 0-.476.164-.589.779-.593l3.416-.019c.615 0 .784.107.787.583 0 .56-.2 4.4-.3 6.5l-.214 6.3c-.024.727-.135.839-.863.844z" fill="#006d88"/><path d="M140.413 60.225L89.326 10.382M6.624 1.5L1.5 153.759" fill="none" stroke="#006d88" stroke-linecap="round" stroke-linejoin="round" stroke-width="3"/></g></svg>