<svg xmlns="http://www.w3.org/2000/svg" width="190.293" height="181.976" viewBox="0 0 190.293 181.976"><g data-name="レイヤー 2"><path d="M147.473 49.072a2.9 2.9 0 01-1.643-4.012 2.616 2.616 0 013.559-1.444 2.871 2.871 0 011.556 4.005 2.56 2.56 0 01-3.472 1.451zm3.721-8.55a2.9 2.9 0 01-1.643-4.012 2.618 2.618 0 013.559-1.445 2.872 2.872 0 011.555 4.006 2.558 2.558 0 01-3.471 1.451zm3.72-8.548a2.9 2.9 0 01-1.643-4.013 2.617 2.617 0 013.56-1.444 2.87 2.87 0 011.555 4 2.561 2.561 0 01-3.472 1.457zm-11.204 37.11a.823.823 0 00-1.032.405l-1.753 4.032c-.313.718-.421 1.038.4 1.395l2.131.928c.95.413 1.364-.048 2.192-1.458.241-.415.463-.715 1.131-.424a6.29 6.29 0 011.681 1.189c.3.286.581.559.391 1a13.167 13.167 0 01-2.4 3.2c-1.305 1.173-2.274 1.087-3.79.426l-3.876-1.686c-2.465-1.073-3.154-2.015-2.026-4.606.256-.591.663-1.454.8-1.761l1.632-3.749a.8.8 0 00-.406-1.031l-2.234-.972c-.1-.045-.345-.12-.412.034s.182.354.614.694a3.409 3.409 0 01.366.283c.472.388.761.635.649.892s-.35.244-.578.207c-.2-.027-.3-.01-.394.133-2.1 2.871-5.244 4.191-8.709 4.577a8.78 8.78 0 01-2.6 0c-.873-.38-1.54-2.777-1.227-3.5.133-.309.424-.273.677-.225 2.818.4 7.762-.714 9.014-3.589.123-.284.183-.562-.331-.786l-2-.871c-1.129-.492-2.268-.895-3.4-1.386-.616-.269-.544-.574-.2-1.37l.637-1.462c.335-.771.509-1.031 1.125-.763.411.179.811.384 1.221.562.1.045.437.19.5.036.044-.1-.09-.284-.156-.343-.256-.324-1.048-1.311-.869-1.721.068-.154.336-.282.5-.392a27.18 27.18 0 006.528-5.526c.2-.248.352-.457.583-.356a28.1 28.1 0 012.368 1.854c.6.508.893.756.77 1.038-.1.231-.288.241-.552.218-.478-.025-.775.518-.82.62a.486.486 0 00.275.7l.617.269c.59.257.857-.147 1.069-.634l.2-.463a16.339 16.339 0 00.582-1.548.759.759 0 01.075-.242c.145-.333.424-.273.706-.151.488.213 2.706 1.361 3.274 1.67.272.148.579.282.468.539-.067.154-.3.2-.461.288-.332.131-.548.556-.793 1.12l-.257.591c-.191.436-.167.874.321 1.087l3.594 1.564c.924.4 1.82.731 2.616 1.076.564.246.5.526.124 1.4l-.565 1.334c-.347.8-.52 1.055-1.06.821-.873-.38-1.723-.812-2.6-1.191l-3.54-1.542a.765.765 0 00-1.032.407l-.76 1.745a.783.783 0 00.407 1.032l4.877 2.123c1.13.491 2.257.92 3.386 1.412.616.268.545.573.2 1.369l-.637 1.463c-.335.77-.509 1.03-1.125.762-1.13-.492-2.226-1.059-3.33-1.54zm-5.886-6.684a.8.8 0 001.032-.407l.76-1.745a.783.783 0 00-.406-1.032l-2.054-.894a1.106 1.106 0 00-1.317.222c-.591.444-1.23.93-1.872 1.353a.938.938 0 00-.3.329c-.123.283.2.454.431.554zm-8.955 20.226a.776.776 0 001.021-.38l.637-1.464a22.042 22.042 0 00.906-2.292.852.852 0 01.075-.243c.156-.359.435-.3.718-.176.359.157 2.258 1.2 3.474 1.91.363.218.483.363.383.594-.056.128-.178.2-.461.287s-.491.428-.916 1.4l-.737 1.694a.825.825 0 00.4 1.058l3.594 1.564c1.1.481 2.267.9 3.371 1.375.668.291.548.636.1 1.663l-.492 1.13c-.424.976-.624 1.224-1.24.955-1.1-.48-2.2-1.048-3.3-1.528l-3.602-1.561a.8.8 0 00-1.033.406l-.7 1.618a.8.8 0 00.407 1.031l2.464 1.072c1.078.47 2.191.863 3.269 1.331.719.314.636.644.278 1.465l-.6 1.387c-.369.847-.569 1.1-1.287.783-1.079-.47-2.109-.979-3.187-1.448l-2.465-1.072a.783.783 0 00-1.032.406l-.972 2.233a.8.8 0 00.407 1.032l4.492 1.956c1.155.5 2.344.928 3.5 1.431.693.3.622.606.242 1.479l-.626 1.437c-.379.873-.554 1.134-1.247.832-1.155-.5-2.288-1.057-3.443-1.56l-14.429-6.28c-1.155-.5-2.333-.953-3.489-1.457-.693-.3-.622-.606-.242-1.479l.626-1.438c.38-.873.555-1.132 1.247-.831 1.156.5 2.278 1.083 3.433 1.586l4.441 1.933a.8.8 0 001.033-.406l.972-2.234a.783.783 0 00-.406-1.032l-2.413-1.05c-1.053-.459-2.154-.876-3.207-1.334-.718-.312-.684-.6-.3-1.476l.38-.873c.224-.513-.047-.875-.537-1.364-.383-.381-1.4-1.492-1.161-2.032.112-.257.466-.438.709-.577A21.175 21.175 0 00125.3 76.8c.208-.337.356-.608.715-.451.385.167 2.377 1.766 2.966 2.237.432.341.6.507.492.764s-.472.313-.748.315c-.551 0-.644.147-1 .6a6.754 6.754 0 00-.653.938c-.189.437.137.669.485.852zm-2.894 6.65a.8.8 0 001.033-.406l.7-1.617a.8.8 0 00-.406-1.032l-2.593-1.128c-.9-.392-1.365.047-1.893.489-.347.306-.864.723-1.081.872s-.352.244-.407.373c-.156.36.331.571 2.231 1.4zm6.392 23.975c-.324.744-3.033 1.917-3.752 1.6-.256-.112-.31-.41-.374-.682a19.676 19.676 0 00-2.484-5.448c-.11-.17-.263-.451-.185-.63.212-.488 2.959-1.674 3.5-1.44.511.227 3.574 5.957 3.295 6.6zM117.76 34.2a16.191 16.191 0 011.35 1.809.292.292 0 01.028.287.333.333 0 01-.317.167 1.52 1.52 0 00-.98.429 49.5 49.5 0 01-8.182 5.325c-.585.3-2.783 1.414-3.3 1.191-.436-.19-2.48-3-2.19-3.671a.737.737 0 01.421-.336 32.974 32.974 0 0010.832-6.645c.226-.237.44-.45.671-.349a10.913 10.913 0 011.667 1.793zm7.918 3.415a29.64 29.64 0 011.073 4.132c.243 1.266 1.109 6.712.685 7.688-.235.539-1.71.629-2.247.671a6.556 6.556 0 01-2.186-.1c-.36-.156-.343-.546-.323-.873a42.494 42.494 0 00-1.235-10.492 1.07 1.07 0 01-.026-.714c.179-.411 1.408-.639 1.868-.714a4.017 4.017 0 011.836-.149 1.122 1.122 0 01.555.551zm4.667 2.4a3.054 3.054 0 01-2.151.8c-.128-.056-.15-.217-.182-.354q-.477-1.536-1.064-3.028a.493.493 0 01-.086-.434c.157-.36 1.905-.729 2.136-.629a9.9 9.9 0 011.347 3.643zm3.624-.958c-.2.462-1.844.938-2.126.815-.129-.056-.19-.265-.237-.438-.3-.988-.658-2-1.061-2.966a.465.465 0 01-.071-.4c.168-.385 1.891-.764 2.147-.653.231.101 1.526 3.23 1.348 3.64zM114.946 56.03a14.7 14.7 0 001.806.7 5.818 5.818 0 01.663.227c.8.347 1.37 2.887 1.214 3.246a3.283 3.283 0 01-.731.629 51.987 51.987 0 01-5.982 3.992.768.768 0 00-.418.4.63.63 0 00.125.695 58.36 58.36 0 013.086 5.68c.156.343.708 1.529.787 1.839a.4.4 0 01.02.375c-.313.718-3.453 2.04-4.172 1.726-.384-.167-.54-.723-.677-1.18a.5.5 0 00-.05-.235 30.1 30.1 0 00-2.72-6.1 2.261 2.261 0 00-.657-.806.989.989 0 00-.776.029 31.978 31.978 0 01-5.371 1.327 19.654 19.654 0 01-4.362.27c-.463-.2-.8-2.026-.9-2.561a4.332 4.332 0 01-.038-1.666c.167-.384.594-.382.946-.35a25.046 25.046 0 0014.218-3.829 1.925 1.925 0 00.694-.615c.19-.436-.223-.677-.66-.867l-3.9-1.7c-1.157-.5-2.36-.966-3.54-1.48-.642-.279-.56-.609-.158-1.534l.749-1.72c.391-.9.521-1.056 1.137-.787 1.181.513 2.328 1.1 3.51 1.619zm-8.291 27.753c1.232.536 2.627 1.052 3.4 1.387s.713.677.143 1.986l-.335.77c-.536 1.233-.7 1.53-1.544 1.161-1.1-.481-2.211-1.023-3.314-1.5l-.591-.257c-.539-.235-.961.1-1.224.567a16.539 16.539 0 01-8.379 7.744c-1.042.431-4.386 1.45-5.362 1.025-.514-.223-1.095-1.484-1.349-2.022-.156-.344-.522-1.326-.377-1.66.112-.257.749-.317 1.036-.344 4.3-.417 7.333-1.695 9.772-5.335.186-.286.731-1.118.82-1.323a.749.749 0 00-.406-1.032l-1.976-.86c-.8-.347-1.189-.426-1.795-.018-.823.558-5.272 3.2-5.991 2.89a6.141 6.141 0 01-1.552-1.836c-.441-.742-.768-1.464-.634-1.772.1-.231.584-.357.83-.433 4.045-1.294 8.928-4.727 11.245-8.3.234-.326.408-.586.64-.485a34.852 34.852 0 012.7 2.213c.381.319 1.1.907.99 1.164-.055.129-.218.149-.405.16-.636.059-1 .479-1.643 1.179q-.355.393-.854.91a2.969 2.969 0 00-.4.5.594.594 0 00.345.821zm-18.97 16.083c.112-.257.264-.465.572-.331.256.112 2.856 2.068 3.288 2.408.183.141.6.445.489.7-.078.179-.292.178-.567.18-.5.027-.905.676-1.32 1.35l-.209.337c-.092.142-.266.4-.3.479-.256.591.271.852.6 1a4.9 4.9 0 011.885 1.493c1.365 1.846 1.039 3.5.246 5.329-.984 2.258-3.1 5.8-5.093 7.28a6.282 6.282 0 01-6.668.518c-.744-.324-1.06-.583-1.022-1.3a11.079 11.079 0 01.564-2.839c.145-.334.371-.572.755-.405.36.157.708.339 1.067.5 1.515.66 1.971.735 2.909-.017a16.223 16.223 0 003.636-5.2c.514-1.181.5-1.644-.5-2.08-.847-.369-1.123-.367-1.723.381a37.118 37.118 0 01-7.674 6.828 18.357 18.357 0 01-2.906 1.7.616.616 0 01-.516-.01c-.59-.257-2.437-2.679-2.079-3.5.112-.258.454-.413 1.044-.645a21.842 21.842 0 007.54-5.117 1.555 1.555 0 00.319-.38.393.393 0 00-.244-.564 18.457 18.457 0 00-2.5-.231 1.346 1.346 0 01-.592-.043c-.411-.179-.283-1.315-.079-2.416a15.208 15.208 0 01.438-1.917c.145-.333.358-.333 1.163-.075a30.205 30.205 0 004.207 1.068c.723.162.966.024 1.345-.636a35.214 35.214 0 001.747-3.453zm9.343 7.09a20.686 20.686 0 01.963 3.472c.15.707.775 3.971.562 4.46-.368.847-3.286 1.165-4 .852-.283-.123-.311-.41-.34-.972a23.693 23.693 0 00-1.066-7.3.891.891 0 01-.082-.586c.235-.539 2.782-.988 3.372-.731a1.276 1.276 0 01.591.805zm3.433-1.011a4.831 4.831 0 01.544 1.978c-.224.514-1.844.938-2.152.8-.1-.045-.19-.266-.251-.477a29.455 29.455 0 00-.977-2.807.679.679 0 01-.115-.507 3.409 3.409 0 012.173-.643 6.034 6.034 0 01.778 1.656zm3-1.777c.213.489 1.1 2.524.943 2.884-.224.513-1.881.953-2.163.83-.154-.067-.219-.34-.24-.5-.264-.94-.652-1.872-1.014-2.792-.058-.149-.17-.381-.1-.535.157-.36 1.88-.739 2.162-.616.179.078.371.619.415.729zm-19.749-62.11c.183.141.5.4.408.6a.27.27 0 01-.27.127c-.51.053-.7.338-1.1.924a52.535 52.535 0 00-5 9.246c-.883 2.027-1.788 4.107.266 5a6 6 0 005.083-.384 9.15 9.15 0 003.263-3.008c.326-.468.6-.9 1.041-.707.565.246 1.033 1.275 1.288 1.813.283.612.752 1.639.472 2.282a10.521 10.521 0 01-2.478 2.677 9.944 9.944 0 01-10.255 1.53 6.836 6.836 0 01-4.04-4.258c-.567-2.2.462-4.99 1.357-7.043 1.284-2.954 2.915-6 4.327-8.683.287-.517.692-1.378.949-1.969.246-.565.391-.9.827-.709.591.253 3.118 2.025 3.862 2.562zm-7.933 23.42c.432.34 1.1.907.99 1.163-.056.129-.244.138-.369.145-.437.024-.719.39-1.318 1.137q-.228.312-.6.746a2.144 2.144 0 00-.152.209.478.478 0 00.286.674 11.86 11.86 0 002.37.238 2.38 2.38 0 01.721.1c.693.3-.413 2.842-.749 3.613-.156.359-.326.469-.792.418-1.173-.112-2.984-.443-4.074-.673-1.2-.25-1.292-.258-2 .533a80.559 80.559 0 01-9.868 9.2c-.351.245-.628.46-1.064.27s-2.6-2.508-2.269-3.277c.1-.231.441-.45.95-.778a44.183 44.183 0 007.886-6.615 1.872 1.872 0 00.437-.512c.156-.359-.093-.558-.375-.681-.514-.224-1.163-.415-1.728-.661-.539-.235-.839-.457-.748-1.089a20.9 20.9 0 01.9-2.844c.145-.334.308-.568.718-.39.257.112 1.357.743 2.692 1.324 1.283.559 1.694.738 2.179.185a30.918 30.918 0 002.8-4.4c.067-.155.174-.26.328-.194.334.148 2.443 1.828 2.849 2.159zm-7.614 15.741c.5 1.717 2.334 2.847 3.874 3.518a13.562 13.562 0 004.112 1.148 1.069 1.069 0 01.3.071c.411.18.217.767-.141 1.588l-.335.77c-.614 1.413-.749 1.72-1.267 1.648a32.733 32.733 0 01-4.485-1.555c-1.822-.793-4.212-2.108-5.246-3.871-.277-.487-.786-1.563-.529-2.154.19-.437 1.642-1.178 2.108-1.4.3-.141.992-.454 1.3-.32.183.074.262.384.309.557zm5.913-6.71a24.813 24.813 0 015.493 3.306c.314.259.552.485.373.9a9.89 9.89 0 01-2 2.489.594.594 0 01-.622.1 2.388 2.388 0 01-.563-.459 12.316 12.316 0 00-4.115-2.615l-.925-.4c-.589-.256-.736-.412-.535-.874 1.286-2.963 1.867-2.894 2.894-2.447zM58.433 90.88c.235.162.484.362.383.594-.045.1-.155.145-.39.195-.446.112-.736.566-.98.918a20.662 20.662 0 00-1.9 3.449 13.033 13.033 0 00-1.221 5.332c.016.526.12 1.549.684 1.794.591.257 1.64-.538 2.049-.848a1.1 1.1 0 011.076-.295c.77.335 2.034 2.625 1.765 3.24s-2.041 1.464-2.69 1.761c-1.334.611-2.6 1.066-4.013.452-1.721-.748-2.637-2.644-3.005-4.392-.739-3.5.714-7.324 2.088-10.481a193.88 193.88 0 011.849-3.9.419.419 0 01.615-.22c.336.146 3.105 1.993 3.69 2.401zm9.754 3.267c.694.3 2.03 2.776 2.366 5.09a15.25 15.25 0 01-.391 6.091c-.128.433-.318 1.083-.453 1.391-.235.539-.463.714-1.043.644a9.621 9.621 0 01-2.629-.624c-.95-.414-.831-.759-.484-1.768 1.111-3.181 1.093-6.089-.585-8.9a.577.577 0 01-.068-.548c.257-.588 2.518-1.71 3.287-1.376zm-25.536 17.56c.347-.8.641-.7 3.531.376.525.2 1.126.429 1.869.69 3.323 1.2 11.137 3.6 14.527 4.369a1.034 1.034 0 01.267.086c.463.2.383.594.274 1.127a19.587 19.587 0 01-.907 2.994c-.212.488-.494.365-1.609-.09a11.418 11.418 0 00-3.873-1.135 8.7 8.7 0 00-8.577 5.184c-1.061 2.439-.068 3.665 2.191 4.648.642.279 1.522.571 1.882.728.488.212.634.367.422.855a12.69 12.69 0 01-1.744 2.814c-.429.423-.822.344-1.361.11-4.75-2.067-8.193-5.031-5.78-10.577a11.738 11.738 0 015.058-5.586.787.787 0 00.321-.318.438.438 0 00-.294-.586 10.007 10.007 0 00-1.487-.373c-1.473-.334-3.412-.721-4.914-.917a1.838 1.838 0 01-.383-.1c-.539-.234-.215-1.468 0-2.319a15.245 15.245 0 01.587-1.98zm15.193 11.681a12.405 12.405 0 01.651 3.275c-.224.514-1.956.706-2.213.595-.128-.056-.146-.155-.256-.815-.164-.957-.388-1.847-.64-2.811a.474.474 0 010-.339c.156-.359 1.928-.5 2.211-.381.124.056.203.302.247.476zm4.7 3.174c-.224.512-1.942.742-2.224.619-.18-.078-.208-.366-.229-.527a22 22 0 00-.671-2.949.882.882 0 01-.037-.474c.145-.334 1.9-.515 2.212-.381a10.579 10.579 0 01.945 3.712zM46.66 137.088c.194.114.546.359.468.538-.034.078-.144.121-.281.154a1.15 1.15 0 00-.746.591c-.137.245-.4.774-.565 1.159-.29.668-.443 1.089.327 1.424 2.028.883 4.168 1.51 6.2 2.392.385.168.708.339-.074 2.135a11.8 11.8 0 01-.993 1.86c-.166.171-.287.24-.519.14-.128-.056-2.823-1.443-3.607-1.815a95.633 95.633 0 00-2.582-1.154.747.747 0 00-1.08.446l-.268.616a2.5 2.5 0 00-.255 1.569 9.21 9.21 0 01-.816 3.768c-1.8 4.133-6.827 7.9-8.136 7.329a7.705 7.705 0 01-1.778-1.6c-.585-.621-1.053-1.162-.9-1.521.1-.23.569-.393.852-.484.689-.25 2.424-.869 2.6-1.28.123-.283-.086-.433-.317-.535-2.339-1.079-2.076-4.139-1.216-6.117.994-2.285 3.12-4.291 5.811-3.67.191.053.511.161.612-.07.055-.127.008-.3-.222-.4-.284-.123-2.247-.733-2.68-.86-.65-.191-4.5-1.166-5.07-1.261a3.716 3.716 0 01-.5-.124c-.41-.178-.281-.825.261-2.422.291-.88.523-1.482.612-1.687.168-.385.319-.38.946-.138 2.381.914 4.77 1.741 6.869 2.532.679.264 1.291.469 1.659-.377a22.024 22.024 0 00.987-2.9.8.8 0 01.064-.216.379.379 0 01.553-.217c.468.207 3.224 1.861 3.784 2.195zM36.569 148c-.2.462-.679 1.842.014 2.144s1.432-.905 1.655-1.418c.235-.539.624-1.714-.121-2.037-.693-.307-1.324.792-1.548 1.311zm-11.237 32.829a2.752 2.752 0 01-4.074.443 2.433 2.433 0 01-.5-3.548 2.79 2.79 0 014.121-.548 2.531 2.531 0 01.453 3.653zm-.255-5.747c-.569-.454-.587-.611-.155-1.2l3.913-5.365c.993-1.427 3.224-4.589 3.573-5.027.3-.373.5-.355.979.029l2.672 2.126c.482.384.544.577.247.949-.348.438-2.913 3.3-4.308 4.871l-4.12 4.77c-.475.553-.632.571-1.2.118z" fill="#006d88"/><path d="M176.342 2.327l12.451 125.793M82.263 1.5L1.5 76.533" fill="none" stroke="#006d88" stroke-linecap="round" stroke-linejoin="round" stroke-width="3"/></g></svg>