<svg xmlns="http://www.w3.org/2000/svg" width="201" height="201" viewBox="0 0 201 201"><g data-name="レイヤー 2"><circle cx="100.5" cy="100.5" r="100.5" fill="#006d88"/><path d="M76.585 97.243c-.24.144-.72.336-.72.672 0 .72 5.616 1.536 6.48 1.68.72.1 1.153.288 1.153 1.1 0 1.68-1.393 5.472-3.361 5.472a8.644 8.644 0 01-1.824-.336 34.366 34.366 0 01-13.633-6.764c-.192-.144-.48-.48-.721-.48-.383 0-.383.384-.383.768v.72c0 1.872-.432 2.16-1.536 2.448a149.544 149.544 0 01-15.074 2.64c-.72.1-.672.1-.96.672-.144.288-.24.576-.816.576-.72 0-.864-.576-1.056-1.2-.24-.816-1.44-4.8-1.44-5.328 0-1.008 1.2-.96 1.92-1.008 3.744-.192 3.984-.288 3.984-2.064V81.833c0-.576-.048-.96-.48-.96a5.826 5.826 0 00-1.728.864 4.341 4.341 0 01-1.968.768c-1.632 0-4.176-3.936-4.176-5.088 0-.576.671-.816 1.44-1.2 6.384-3.169 12.673-7.2 16.753-13.1.432-.624.624-.864 1.152-.864.96 0 6 1.056 7.345 1.344.192.048.672.288.672.72a1.029 1.029 0 01-.432.72.545.545 0 00-.144.384c0 .432 1.248 1.632 1.584 1.968 4.224 4.176 9.121 6.769 14.545 8.977a.786.786 0 01.624.816c0 1.392-1.872 5.616-3.456 5.616-.672 0-3.216-1.44-3.984-1.92a2.512 2.512 0 00-1.056-.48c-.433 0-.48.336-.48 1.056v4.225c0 1.2.047 2.448.047 3.7 0 .576 0 .864.337.864h.336a2.062 2.062 0 011.1.48c1.392 1.008 2.688 2.064 4.08 3.072.288.24.864.624.864 1.008a.586.586 0 01-.528.624c-.288 0-.72-.192-.96-.192a1.829 1.829 0 00-.48.144c-1.052.567-2.012 1.24-3.02 1.864zm-9.169-15.122a.635.635 0 00.624-.624v-.288a.635.635 0 00-.624-.624H55.655a.6.6 0 00-.576.624v.291a.568.568 0 00.576.624zm-11.761 3.937a.6.6 0 00-.576.624v.288a.6.6 0 00.576.624h11.761a.635.635 0 00.624-.624v-.288a.605.605 0 00-.624-.624zm.768 6.1a1.312 1.312 0 00-1.344 1.342v2.689c0 .912.1 1.392.912 1.392.672 0 3.841-.576 4.512-.72.433-.1.912-.288.912-.769 0-.287-.24-.624-.672-1.248-.384-.624-.96-1.536-1.2-1.92-.432-.672-1.152-.768-2.016-.768zm.72-15.937c.912 0 1.632-.288 1.632-1.392 0-.432-.144-1.344-.144-1.777 0-.576.336-.719.864-.719.624 0 3.36.287 4.128.335a3.206 3.206 0 00.721.1.318.318 0 00.336-.289 5.575 5.575 0 00-1.1-1.3 8.689 8.689 0 01-.68-.679c-.288-.288-.625-.72-1.056-.72s-.865.528-1.345 1.008a74.521 74.521 0 01-4.608 4.129c-.24.24-.768.576-.768.912s.384.384.96.384zm10.513 0c.624 0 .816-.048.816-.384a.981.981 0 00-.24-.432c-.432-.432-1.3-1.008-1.584-1.3a.733.733 0 00-.48-.192 1.273 1.273 0 00-1.1 1.1c0 .624.432 1.2 1.728 1.2zm-.528 15.937c-.624 0-.96 0-.96.384 0 .432 2.3 2.448 3.216 2.448a6.359 6.359 0 003.073-2.4c0-.336-.529-.384-.817-.384-1.248 0-2.5-.048-3.744-.048zm45.6-9.797a.671.671 0 00.624.624h5.712c1.633 0 3.265-.048 4.9-.048 1.152 0 2.256.144 2.256 1.585 0 .816-.048 1.632-.048 2.448a1.343 1.343 0 001.3 1.392c.624 0 1.248-.048 1.824-.048 1.008 0 1.008.48 1.008 1.92V91c0 .816-.1 1.248-.96 1.248h-1.92c-.432 0-1.3.288-1.3 1.584v.24c0 1.248.144 3.025.144 3.6 0 1.1-.72 1.152-1.632 1.152h-3.217c-1.968 0-2.255 0-2.592-.72a1.016 1.016 0 00-1.008-.432h-3.459c-1.152 0-1.536.72-1.536 1.3 0 .48.048 1.3.048 1.92a4.382 4.382 0 01-1.584 3.6c-1.969 1.44-5.473 1.584-7.825 1.584-1.728 0-2.592-.144-3.072-1.248a12.08 12.08 0 01-.672-3.936c0-.672.144-1.248.96-1.248a8.569 8.569 0 011.1.1 13.422 13.422 0 001.92.144c1.3 0 1.68-.192 1.68-1.392 0-.576-.432-.816-.96-.816h-5.9c-2.785 0-4.513.1-5.617.1-1.776 0-1.776-.1-1.776-1.968v-.817c0-1.1.1-1.344 1.248-1.344 2.064 0 4.128.1 6.145.1h6.288a.6.6 0 00.576-.624v-.288a.6.6 0 00-.576-.624h-9.6c-2.209 0-4.417.048-6.625.048-.913 0-1.008-.384-1.008-1.3v-.768c0-1.584.048-1.872 1.008-1.872 2.208 0 4.416.1 6.625.1h9.6a.6.6 0 00.576-.624v-.144a.568.568 0 00-.576-.624h-8.881c-1.3 0-2.592.048-3.888.048-.72 0-.816-.288-.816-1.152v-1.68c0-.961.048-1.345.816-1.345 1.3 0 2.592.1 3.888.1h8.881a.6.6 0 00.576-.624v-.1a.568.568 0 00-.576-.624h-2.88c-1.776 0-3.6.1-5.425.1-1.1 0-3.12 0-3.12-1.536 0-.288.048-.624.048-.864.048-.576.1-1.056.1-1.584v-1.889c0-.528-.048-1.008-.1-1.584 0-.24-.048-.576-.048-.864 0-1.537 2.016-1.537 3.12-1.537 1.825 0 3.649.1 5.425.1h2.88a.6.6 0 00.576-.624v-.144a.6.6 0 00-.576-.624h-8.5c-2.113 0-4.177.1-6.289.1-.96 0-1.152-.384-1.152-1.344v-1.64c0-1.2.048-1.68 1.152-1.68 2.112 0 4.176.1 6.289.1h7.536a1.327 1.327 0 001.488-1.344c0-.24-.144-1.152-.144-1.44 0-.624.528-.672 1.008-.672.336 0 .912.048 1.248.048 1.441.1 4.417.336 5.521.528.432.1.72.24.72.672 0 .288-.192.432-.48.72a.911.911 0 00-.384.72c0 .288.192.768.96.768h7.777c2.16 0 4.272-.1 6.384-.1.96 0 1.056.432 1.056 1.44v1.728c0 1.056-.1 1.488-1.1 1.488-2.112 0-4.224-.1-6.336-.1h-8.209a.635.635 0 00-.624.624v.144a.635.635 0 00.624.624h2.736c1.824 0 3.648-.1 5.425-.1 1.1 0 3.12 0 3.12 1.537a4.936 4.936 0 01-.048.864c-.048.576-.048 1.056-.048 1.584v1.872c0 .528 0 1.008.048 1.584a4.936 4.936 0 01.048.864c0 1.536-2.016 1.536-3.12 1.536-1.825 0-3.6-.1-5.425-.1h-2.736a.605.605 0 00-.624.624zm-11.761-6.384a.758.758 0 00-.768.768v.144a.758.758 0 00.768.768h3.648a.758.758 0 00.768-.768v-.144a.757.757 0 00-.768-.768zm12.529 0a.758.758 0 00-.768.768v.144a.758.758 0 00.768.768h3.6a.758.758 0 00.768-.768v-.144a.758.758 0 00-.768-.768zm-.768 11.809a.635.635 0 00.624.624h4.948a.605.605 0 00.624-.624v-.144a.58.58 0 00-.624-.624h-4.944a.634.634 0 00-.624.624zm.624 4.416a.635.635 0 00-.624.624v.288a.635.635 0 00.624.624h4.948a.605.605 0 00.624-.624v-.288a.58.58 0 00-.624-.624zm43.403-9.597a11.257 11.257 0 013.392 8.223 11.991 11.991 0 01-6.432 10.623 12.274 12.274 0 01-3.807 1.44c-1.12 0-2.816-2.944-2.816-3.84 0-.288.288-.416 1.216-.64 3.711-.96 6.752-3.3 6.752-7.391 0-5.024-3.84-7.008-4.8-7.008-.544 0-.608.576-.64 1.152-.352 4.448-1.632 9.888-4.576 13.407a6.2 6.2 0 01-4.64 2.656 5.7 5.7 0 01-4.863-3.3 10.824 10.824 0 01-1.056-4.8 13.556 13.556 0 0113.631-13.791 11.862 11.862 0 018.639 3.269zm-17.5 10.463c0 .768.193 3.1 1.312 3.1.768 0 1.856-2.112 2.176-2.784a28.921 28.921 0 002.016-8.192c0-.256-.128-.48-.416-.48-.931.004-5.091 2.948-5.091 8.356zM45.46 124.044a.951.951 0 00.992-.96v-.511a46.189 46.189 0 00-.225-4.736c0-.16-.031-.288-.031-.416 0-.384.256-.48.575-.48.7 0 2.785.192 3.52.288a1.558 1.558 0 00.384.032c.608.064.992.1.992.448a.622.622 0 01-.288.448 1.652 1.652 0 00-.379 1.312c0 1.056 0 2.08.031 3.1v.384a1.012 1.012 0 00.992.959h1.088c1.12 0 4.064-.191 4.48-.191.768 0 1.024.319 1.024 1.727v1.632c0 1.12-.256 1.408-1.184 1.408-.48 0-.992-.032-1.472-.032-.928 0-1.824.032-2.72.032h-1.092a1.053 1.053 0 00-1.024 1.024l.128 6.432c.032.832.032 1.663.032 2.5 0 2.272-.448 3.84-2.815 4.512a12.173 12.173 0 01-3.392.416h-.224c-.64 0-1.248-.032-1.472-.544a12.308 12.308 0 01-.864-3.712c0-.32.064-.576.448-.576a5.747 5.747 0 01.7.064 8.729 8.729 0 001.312.1c1.632 0 1.7-.32 1.7-1.5l-.064-4.735a.412.412 0 00-.416-.448.659.659 0 00-.544.32 50.387 50.387 0 01-7.264 6.783c-.448.352-1.663 1.312-2.143 1.312-.768 0-3.424-2.272-3.424-3.04 0-.287.448-.543.736-.7a37.986 37.986 0 008.351-6.431c.224-.224.9-.864.9-1.12a.485.485 0 00-.48-.448l-3.456.064c-1.088.032-3.68.16-4.16.16-.832 0-1.055-.288-1.055-2.24v-1.184c0-1.12.095-1.344.991-1.344.833 0 1.665.064 2.5.064.544 0 1.088-.032 1.632-.032zm32.16-3.423c.991 0 2.4-.064 3.039-.064.7 0 1.5.864 1.984 1.376l.256.256c.512.544 1.408 1.471 1.408 1.951a8.876 8.876 0 01-.288 1.056c-.128.544-.224.992-.352 1.536-1.376 6.784-5.056 11.2-11.007 14.527-.96.512-3.872 2.016-4.832 2.016-.7 0-1.28-1.024-1.6-1.568a7.971 7.971 0 01-1.056-2.4c0-.352.32-.448.608-.512a20.438 20.438 0 009.248-5.343c1.983-2.144 3.455-5.568 3.455-7.3 0-.576-.576-.64-1.088-.64H67.22c-1.376 0-2.72.032-4.1.032-1.087 0-1.248-.128-1.248-1.376v-2.079c0-1.344.161-1.536 1.088-1.536 1.44 0 2.912.064 4.352.064zM89.3 118.7a3.328 3.328 0 11-3.327-3.328A3.332 3.332 0 0189.3 118.7zm-5.023 0a1.667 1.667 0 001.7 1.7 1.686 1.686 0 001.695-1.7 1.7 1.7 0 10-3.391 0zm9.856 6.208c.511 0 4.063 2.176 4.7 2.592.641.384 2.368 1.408 2.368 1.952 0 .7-2.048 3.52-2.751 3.52a1.755 1.755 0 01-.8-.416 55.407 55.407 0 00-5.407-3.456c-.352-.192-.672-.352-.672-.64.002-.608 1.858-3.552 2.562-3.552zm.32 13.6c.735-.16 3.007-1.024 3.839-1.344a19.878 19.878 0 007.744-4.7c2.592-2.656 4.383-6.592 5.631-10.048.128-.351.32-.831.8-.831.448 0 1.44.928 1.824 1.279.416.417 1.6 1.568 1.6 2.048a9.627 9.627 0 01-.7 2.112c-3.456 8.32-8.959 12.735-17.247 15.839-.863.32-.927.32-1.312.864a.351.351 0 01-.287.224c-.321 0-.737-.928-.864-1.216-.448-.9-1.12-2.528-1.536-3.328a1.261 1.261 0 01-.16-.448c-.004-.292.443-.388.668-.452zm7.967-17.758c.448.32 2.144 1.5 2.144 1.952 0 .7-2.08 3.391-2.72 3.391-.224 0-.64-.352-.832-.512a59.529 59.529 0 00-5.247-3.679c-.192-.128-.608-.384-.608-.64 0-.608 2.112-3.232 2.752-3.232.575-.001 3.839 2.239 4.511 2.719zm32.48 4.45c1.024 0 1.7.384 1.7 1.472v12.287c0 .672.031 1.376.031 2.08 0 1.216-.159 1.408-1.44 1.408h-1.215c-.928 0-1.184-.128-1.312-.64-.1-.352-.256-.416-1.12-.416h-6.624c-1.12 0-2.272.064-3.391.064-.7 0-.864-.16-.864-1.728V138.6c0-.736.064-1.216.736-1.216.736 0 2.271.064 3.455.064h7.04a.607.607 0 00.608-.607v-.992a.588.588 0 00-.608-.608h-6.72c-1.183 0-2.559.064-3.424.064-.767 0-.831-.48-.831-1.7v-.832c0-1.024.032-1.472.768-1.472.384 0 1.184.064 2.016.064h8.191a.608.608 0 00.608-.608v-.992a.608.608 0 00-.608-.608h-7.04c-1.087 0-2.208.064-3.327.064-.8 0-.864-.384-.864-1.7v-.96c0-.96.064-1.408.736-1.408.479 0 1.023.032 1.727.032zm32.543.38c.064.1.1.224.192.352a5.091 5.091 0 01.544 1.5c0 .768-2.592 3.232-3.264 3.872-5.151 5.024-10.3 7.9-16.7 10.975a1.388 1.388 0 00-.864.832.279.279 0 01-.256.192c-.256 0-.448-.288-.576-.512a28.186 28.186 0 01-1.5-2.464 8.093 8.093 0 01-.928-1.92c0-.288.352-.448.608-.512a33.686 33.686 0 008.191-3.519 42.854 42.854 0 0011.552-10.016c.063-.1.127-.16.191-.256.288-.415.544-.768.9-.768.631.004 1.622 1.732 1.91 2.244zm-19.262-6.527a36.649 36.649 0 015.631 4.031.685.685 0 01.288.576c0 .928-2.271 3.52-3.008 3.52a1.4 1.4 0 01-.8-.48 32.882 32.882 0 00-5.375-3.743c-.256-.16-.576-.352-.576-.672 0-.64 1.92-3.68 2.848-3.68a3.244 3.244 0 01.992.448zM97.635 19.982v6.4a.74.74 0 01-.74.741h-.2a.74.74 0 01-.74-.741v-6.43a1.39 1.39 0 00-2.78 0v6.429a.74.74 0 01-.74.741h-.2a.74.74 0 01-.74-.741v-6.4a1.347 1.347 0 10-2.688.019v6.111c-.012 3.393.8 4.275 2.137 5.332 1.08.851 2 1.339 2 3.454v13.608h3.242V34.9c0-2.115.922-2.6 2-3.454 1.339-1.057 2.149-1.939 2.137-5.332V20a1.347 1.347 0 10-2.688-.018zm10.437.637c-.688 1.931-2.671 6.454-2.8 10.45-.194 6.2 3.606 5.284 3.674 9.347v8.127h3.227l.016.04V20.619c.004-2.355-3.045-3.005-4.117 0z" fill="#fff"/><path stroke="#006d88" stroke-miterlimit="10" fill="#fff" d="M100.5 179.512l-14.055-14.055h28.11L100.5 179.512z"/></g></svg>