<svg xmlns="http://www.w3.org/2000/svg" width="201" height="201" viewBox="0 0 201 201"><defs><style>.cls-2{fill:#fff}</style></defs><g id="レイヤー_2" data-name="レイヤー 2"><g id="option"><circle cx="100.5" cy="100.5" r="100.5" fill="#006d88"/><path class="cls-2" d="M43.558 95.61a1.61 1.61 0 00.576-1.392v-6.24c0-1.2-.672-1.584-1.152-1.584-.336 0-1.2.1-1.632.1-.721 0-.816-.528-.816-1.632v-3.221c0-1.248.095-1.728.816-1.728.383 0 1.344.144 2.256.144h2.16c1.152 0 1.968-.1 2.784-.1 1.392 0 1.92.96 1.92 2.208 0 1.2-.144 2.737-.144 4.465v3.7c0 .24 0 .864.288.864.624 0 1.585-4.32 2.016-6.336a59.423 59.423 0 00.912-9.745c0-.912-.144-1.488-.671-1.488-.1 0-.241.048-.336.048-.817 0-.912-.769-.912-2.017V69.5c0-1.44.1-2.064.96-2.064.432 0 .864.048 1.152.048a1.314 1.314 0 001.248-1.3 16.784 16.784 0 00-.1-2.688c0-.1-.048-.24-.048-.336 0-.624.48-.72 1.008-.72.96 0 4.08.288 5.28.288.72 0 1.393.048 1.393.672 0 .288-.433.48-.673.624-.431.192-.431.144-.431 2.352a1.33 1.33 0 001.392 1.152c.527 0 1.631-.1 2.111-.1.817 0 .913.72.913 1.44 0 .192 0 .768.335.768.385 0 .481-.432.673-.864a39.7 39.7 0 001.824-5.568c.192-.768.24-.96.576-.96.48 0 4.08 1.056 4.848 1.248.528.144 1.584.384 1.584 1.008 0 .336-.336.384-.624.528a.578.578 0 00-.48.624c0 .528.529.624.912.624h1.681c1.728 0 3.456-.1 5.184-.1 1.056 0 1.152.384 1.152 1.776V70.6c0 1.008-.1 1.536-1.1 1.536-1.728 0-3.5-.1-5.232-.1h-3.937c-1.584 0-1.728.913-1.728 1.056 0 .337.192.481.768.481h2.928c1.2 0 2.4-.1 3.649-.1 1.488 0 1.872.385 2.88 1.537a6.949 6.949 0 011.488 2.736c0 .816-1.056 1.68-1.584 2.208a27.957 27.957 0 01-2.3 1.968 1.121 1.121 0 00-.48.768c0 .336.384.48.672.48.864 0 1.728-.1 2.592-.1 1.392 0 1.488.576 1.488 2.3v1.776c0 1.44-.144 2.064-1.392 2.064-1.008 0-2.064-.1-3.072-.1a1.4 1.4 0 00-1.488 1.248c0 .72.047 1.44.047 2.208 0 4.609-3.312 5.185-7.152 5.185-.864 0-2.112 0-2.592-.817a9.289 9.289 0 01-.864-3.984c0-.672.1-1.44.96-1.44.432 0 1.1.192 1.776.192 1.392 0 1.488-.384 1.488-1.68a.923.923 0 00-.96-.912c-1.008 0-2.016.1-3.024.1-1.3 0-1.44-.624-1.44-2.112v-1.905c0-1.584.1-2.112 1.488-2.112.96 0 1.92.1 2.832.1a.931.931 0 001.008-.864c0-.144-.048-.432-.048-.72 0-.672.288-.816.864-.816h.572a2.543 2.543 0 002.065-1.488c0-.144-.1-.24-.433-.24H72.6c-1.152 0-2.112.1-2.592.1-.672 0-1.152-.192-1.152-.912s-.336-.672-.912-.768c-.72-.1-4.176-1.536-4.176-2.64a.541.541 0 01.144-.384.522.522 0 00.1-.288c0-.576-.672-.625-1.728-.625h-1.541a1 1 0 00-.912.433 1.822 1.822 0 00-.576.816 8.507 8.507 0 00-.048 1.152c0 .624.384 1.248 1.488 1.248h.432c.816 0 1.681-.048 2.544-.048 1.728 0 1.825 1.152 1.825 2.5 0 2.88-.336 11.425-.913 14.113-.671 3.169-2.016 3.889-5.04 3.889h-.624c-.672 0-1.344-.048-1.68-.576a4.338 4.338 0 01-.48-1.873c0-.192-.048-.768-.288-.768-.288 0-.432.336-.48.528-.192.624-.48 1.632-1.248 1.632a12.493 12.493 0 01-3.313-1.632.727.727 0 00-.48-.288.34.34 0 00-.336.384 3.8 3.8 0 001.3 2.065c1.343 1.3 3.36 1.536 5.136 1.632 1.92.1 4.032.1 6.144.1h4.081c4.032 0 8.017 0 12-.1 1.056-.048 2.16-.1 3.216-.1 1.2 0 1.3.528 1.3 1.584 0 3.984-1.008 4.9-3.84 4.9h-15.8c-3.12 0-8.784-.048-11.665-.96a10.125 10.125 0 01-4.128-2.208 1.852 1.852 0 00-1.056-.528c-.336 0-.768.336-1.3.816-.48.48-1.248 1.1-1.68 1.536a1.8 1.8 0 00-.528 1.1c-.048.336-.192.768-.624.768s-.576-.432-.673-.72c-.719-1.68-1.343-3.408-2.064-5.088a5.916 5.916 0 01-.523-1.643c0-.384.336-.672.911-.96a12.44 12.44 0 002.737-1.63zm2.352-31.97a45.842 45.842 0 012.736 3.84c.48.72 2.641 4.128 2.641 4.7 0 1.1-3.841 3.217-4.465 3.217-.432 0-.672-.528-.864-.864a47.958 47.958 0 00-4.608-7.3c-.288-.384-.529-.672-.529-.912 0-.912 3.793-3.168 4.417-3.168.336.007.48.247.672.487zm12.721 20.5c-.192 1.489-.768 4.465-1.152 5.905a.9.9 0 00-.1.384.953.953 0 00.912.96 1.1 1.1 0 001.152-.72 39.115 39.115 0 00.624-7.1c0-.528-.1-.96-.528-.96-.572-.009-.86 1.096-.908 1.528zM109.8 70.6c0 .48-.481.96-.817 1.248C104.039 76.409 99 83.9 99 90.81c0 3.6 1.487 6.193 5.376 6.193a8.939 8.939 0 007.057-3.6c2.4-3.312 2.88-8.641 2.88-12.673a29.486 29.486 0 00-2.113-11.858 3.1 3.1 0 01-.192-.96c0-1.44 4.656-2.352 5.808-2.352 1.44 0 1.584.672 1.825 2.112.864 5.232 3.936 9.937 7.008 13.921.576.768 1.008 1.3 1.008 1.824 0 .72-.96 1.344-1.872 1.969-.624.432-2.545 1.68-3.264 1.68-.625 0-1.153-.864-1.441-1.392-.191-.336-.384-.576-.624-.576-.479 0-.479.576-.527 1.152-.145 3.168-.673 6.864-2.16 9.648a14.907 14.907 0 01-13.2 7.969c-7.537 0-12.385-5.232-12.385-12.673A25.037 25.037 0 0194.966 80.2a1.364 1.364 0 00.192-.576.371.371 0 00-.336-.384 1.613 1.613 0 00-.672.24 2.244 2.244 0 01-.912.288c-.576 0-.912-.672-1.152-1.152-.672-1.248-1.92-4.272-1.92-5.616 0-.769.528-.865 1.968-1.009a30.529 30.529 0 006.912-1.2 6.539 6.539 0 003.985-3.408c.336-.576.768-1.392 1.536-1.392 1.533.001 5.233 3.217 5.233 4.609zm18.577 1.536c0 .912-2.592 2.4-3.12 2.4-.193 0-.576-.432-1.248-1.489-.529-.864-1.344-1.968-2.4-3.36-.288-.384-.431-.528-.431-.768 0-.672 2.736-2.064 3.216-2.064.527.001 3.983 4.609 3.983 5.281zm2.784-6.816a11.1 11.1 0 011.729 2.736c0 .912-2.5 2.448-3.073 2.448-.288 0-.432-.24-.576-.48a48.294 48.294 0 00-3.168-4.368 1.289 1.289 0 01-.288-.576c0-.768 2.736-2.16 3.168-2.16.481 0 1.872 1.92 2.208 2.4zm25.547 17.14a11.264 11.264 0 013.392 8.224 11.991 11.991 0 01-6.432 10.623 12.279 12.279 0 01-3.808 1.44c-1.12 0-2.815-2.944-2.815-3.84 0-.288.287-.416 1.216-.64 3.711-.96 6.751-3.3 6.751-7.391 0-5.024-3.84-7.008-4.8-7.008-.544 0-.608.576-.64 1.152-.351 4.448-1.632 9.888-4.575 13.407a6.2 6.2 0 01-4.641 2.656 5.7 5.7 0 01-4.863-3.3 10.838 10.838 0 01-1.056-4.8A13.556 13.556 0 01148.068 79.2a11.869 11.869 0 018.64 3.26zm-17.5 10.464c0 .768.192 3.1 1.312 3.1.768 0 1.856-2.111 2.175-2.783a28.928 28.928 0 002.017-8.192c0-.256-.128-.48-.416-.48-.932.003-5.091 2.947-5.091 8.355zM45.46 123.9a.951.951 0 00.992-.96v-.512a46.47 46.47 0 00-.224-4.735c0-.16-.032-.288-.032-.416 0-.384.256-.48.575-.48.7 0 2.785.192 3.521.288a1.546 1.546 0 00.383.032c.608.064.992.1.992.448a.622.622 0 01-.288.448 1.652 1.652 0 00-.379 1.312c0 1.056 0 2.08.031 3.1v.385a1.013 1.013 0 00.992.959h1.088c1.12 0 4.064-.192 4.48-.192.768 0 1.024.32 1.024 1.728v1.632c0 1.12-.256 1.408-1.184 1.408-.48 0-.992-.032-1.472-.032-.928 0-1.824.032-2.72.032h-1.092a1.053 1.053 0 00-1.023 1.024l.127 6.431c.032.833.032 1.664.032 2.5 0 2.272-.448 3.84-2.815 4.512a12.173 12.173 0 01-3.392.416h-.224c-.64 0-1.248-.032-1.472-.544a12.308 12.308 0 01-.864-3.712c0-.32.064-.576.448-.576a5.747 5.747 0 01.7.064 8.729 8.729 0 001.312.1c1.632 0 1.7-.32 1.7-1.5l-.064-4.735a.412.412 0 00-.416-.448.66.66 0 00-.544.32 50.387 50.387 0 01-7.264 6.783c-.448.352-1.663 1.312-2.143 1.312-.768 0-3.424-2.272-3.424-3.04 0-.288.448-.544.736-.7a37.986 37.986 0 008.351-6.431c.224-.224.9-.864.9-1.12a.485.485 0 00-.48-.448l-3.456.064c-1.088.032-3.68.16-4.16.16-.832 0-1.055-.288-1.055-2.24v-1.197c0-1.12.1-1.344.992-1.344.832 0 1.664.064 2.495.064.544 0 1.089-.032 1.632-.032zm32.16-3.423c.991 0 2.4-.064 3.039-.064.7 0 1.5.864 1.984 1.376l.256.256c.512.544 1.408 1.471 1.408 1.951a8.876 8.876 0 01-.288 1.056c-.128.544-.224.992-.352 1.536-1.376 6.784-5.056 11.2-11.007 14.527-.96.512-3.872 2.016-4.832 2.016-.7 0-1.28-1.024-1.6-1.568a7.971 7.971 0 01-1.056-2.4c0-.352.32-.448.608-.512a20.438 20.438 0 009.248-5.343c1.983-2.144 3.455-5.568 3.455-7.3 0-.576-.576-.64-1.087-.64H67.22c-1.376 0-2.72.032-4.095.032-1.088 0-1.249-.128-1.249-1.376v-2.079c0-1.344.161-1.536 1.088-1.536 1.44 0 2.912.064 4.352.064zm11.678-1.92a3.328 3.328 0 11-3.327-3.328 3.332 3.332 0 013.329 3.328zm-5.023 0a1.667 1.667 0 001.7 1.7 1.687 1.687 0 001.7-1.7 1.7 1.7 0 00-3.392 0zm9.858 6.207c.512 0 4.063 2.176 4.7 2.592.641.384 2.368 1.408 2.368 1.952 0 .7-2.048 3.52-2.751 3.52a1.76 1.76 0 01-.8-.416 55.407 55.407 0 00-5.407-3.456c-.352-.192-.672-.352-.672-.64.002-.608 1.858-3.552 2.562-3.552zm.32 13.6c.735-.16 3.007-1.024 3.839-1.344a19.871 19.871 0 007.744-4.7c2.592-2.656 4.384-6.592 5.632-10.048.128-.351.319-.831.8-.831.448 0 1.439.928 1.824 1.279.415.416 1.6 1.568 1.6 2.048a9.579 9.579 0 01-.7 2.112c-3.456 8.32-8.958 12.735-17.247 15.839-.863.32-.927.32-1.312.864a.351.351 0 01-.287.224c-.32 0-.737-.928-.864-1.216-.448-.9-1.12-2.528-1.536-3.328a1.261 1.261 0 01-.16-.448c-.005-.292.443-.388.667-.452zm7.967-17.758c.448.32 2.144 1.5 2.144 1.952 0 .7-2.08 3.391-2.719 3.391-.225 0-.641-.352-.833-.512a59.54 59.54 0 00-5.247-3.68c-.192-.127-.608-.383-.608-.639 0-.608 2.112-3.232 2.752-3.232.575-.001 3.839 2.239 4.511 2.719zm32.48 4.446c1.024 0 1.7.384 1.7 1.472v12.287c0 .672.032 1.376.032 2.08 0 1.216-.16 1.408-1.441 1.408h-1.215c-.928 0-1.184-.128-1.312-.64-.1-.352-.256-.416-1.12-.416h-6.623c-1.12 0-2.272.064-3.392.064-.7 0-.864-.16-.864-1.728v-1.12c0-.736.064-1.216.736-1.216.736 0 2.272.064 3.456.064h7.04a.607.607 0 00.607-.608v-.991a.588.588 0 00-.607-.608h-6.72c-1.184 0-2.56.064-3.424.064-.768 0-.832-.48-.832-1.7v-.832c0-1.024.032-1.472.768-1.472.384 0 1.184.064 2.016.064h8.192a.607.607 0 00.607-.608v-.992a.607.607 0 00-.607-.608h-7.04c-1.088 0-2.208.064-3.328.064-.8 0-.864-.384-.864-1.7v-.96c0-.96.064-1.408.736-1.408.48 0 1.024.032 1.728.032zm32.543.384c.065.1.1.224.193.352a5.12 5.12 0 01.544 1.5c0 .768-2.592 3.232-3.264 3.872-5.152 5.024-10.3 7.9-16.7 10.975a1.388 1.388 0 00-.864.832.279.279 0 01-.256.192c-.256 0-.447-.288-.576-.512a27.932 27.932 0 01-1.5-2.464 8.06 8.06 0 01-.929-1.92c0-.288.352-.448.608-.512a33.692 33.692 0 008.192-3.519 42.865 42.865 0 0011.551-10.016c.064-.1.127-.16.192-.256.288-.416.544-.768.9-.768.63.008 1.621 1.732 1.909 2.244zm-19.262-6.527a36.529 36.529 0 015.631 4.031.683.683 0 01.289.576c0 .928-2.272 3.52-3.008 3.52a1.392 1.392 0 01-.8-.48 32.89 32.89 0 00-5.376-3.743c-.256-.161-.576-.353-.576-.672 0-.64 1.92-3.68 2.848-3.68a3.244 3.244 0 01.992.448zm-54.42-83.178c-.013 0-.562-.171-1.34-.34a13.715 13.715 0 00-2.743-.341 5.117 5.117 0 00-1.4.171 2.217 2.217 0 00-1.188.764l-.069.092-.037.11a2.72 2.72 0 00-.135.861 4.5 4.5 0 00.716 2.261 12.5 12.5 0 003.365 3.466 26.779 26.779 0 005.917 3.2 38.063 38.063 0 0012.876 2.607 11.08 11.08 0 002.777-.282 3.171 3.171 0 00.988-.432 1.7 1.7 0 00.391-.373 1.329 1.329 0 00.238-.532l.035-.174-.051-.17a5.213 5.213 0 00-1.127-1.829 16.838 16.838 0 00-3.306-2.781 22.151 22.151 0 00-4.5-2.292l-.49 1.338a20.827 20.827 0 015.39 2.993 13.208 13.208 0 011.831 1.681 3.957 3.957 0 01.834 1.3l.682-.2-.7-.14.124.024-.116-.052-.008.028.124.025-.116-.053.049.022-.044-.031v.009l.049.022-.044-.031a.587.587 0 01-.2.131 3.828 3.828 0 01-1.063.277 12.453 12.453 0 01-1.742.105 36.739 36.739 0 01-12.348-2.5 22.917 22.917 0 01-6.894-4.083 9.145 9.145 0 01-1.692-1.991 3.131 3.131 0 01-.516-1.532 1.29 1.29 0 01.063-.411l-.676-.225.57.428a.828.828 0 01.446-.251 3.667 3.667 0 011-.114 12.285 12.285 0 012.442.309 18.158 18.158 0 011.141.285l.066.019.019.005z"/><circle class="cls-2" cx="103.179" cy="20.774" r="2.191"/><path class="cls-2" d="M112.8 30.643l-1.4-3.243a2.324 2.324 0 00-1.161-1.133l-2.606-1.158a7.764 7.764 0 00-3.965-.625l-1.981.208a7.756 7.756 0 00-2.229.579l-2.627 1.118-3.079-.729a.985.985 0 00-1.163.77 1.016 1.016 0 00.77 1.163l2.87.963a2.96 2.96 0 001.666.017l3.053-.79.548 2.6-3.689 1.637a2.8 2.8 0 00-1.679 1.723l-1.793 5.28a1.233 1.233 0 002.359.718l2.123-5.137 3.619-1.527a.311.311 0 01.4.423l-1.074 2.2-.719 5.166a1.233 1.233 0 001.045 1.4 1.193 1.193 0 001.4-1.046l.949-4.968 1.992-2.714a4.655 4.655 0 00.809-3.7l-.541-2.629 2.556 1.051 1.756 3.2a.987.987 0 101.8-.815z"/><path stroke="#006d88" stroke-miterlimit="10" fill="#fff" d="M100.5 179.512l-14.055-14.055h28.11L100.5 179.512z"/></g></g></svg>