<svg xmlns="http://www.w3.org/2000/svg" width="201" height="201" viewBox="0 0 201 201"><defs><style>.cls-2{fill:#fff}</style></defs><g id="レイヤー_2" data-name="レイヤー 2"><g id="option"><circle cx="100.5" cy="100.5" r="100.5" fill="#006d88"/><path class="cls-2" d="M56.843 85.142a6.935 6.935 0 01-.462 1.512 72.791 72.791 0 01-5.251 11.51 1.51 1.51 0 00-.294.756c0 .21.084.5.084.8s-.168.672-.5.672c-.462 0-2.521-1.932-2.983-2.352a7.334 7.334 0 01-.589-.5c-.8-.672-1.343-1.134-1.343-1.638a3.083 3.083 0 01.713-1.3c2.185-3.024 4.37-8.233 5.713-11.762.126-.378.21-.714.588-.714.544-.009 4.324 2.174 4.324 3.016zM52.6 73.968c.546.42 2.9 2.268 2.9 2.856 0 .756-2.353 3.865-3.194 3.865-.378 0-.882-.462-1.176-.714a53.216 53.216 0 00-4.579-3.575c-.336-.252-.84-.5-.84-.882 0-.42 2.143-4.033 3.193-4.033.588.004 3.108 2.021 3.696 2.483zm1.218-9.452c.546.42 2.982 2.184 2.982 2.73 0 1.051-2.058 4.033-3.024 4.033a2.983 2.983 0 01-1.3-.672 82.041 82.041 0 00-4.452-3.319c-.336-.252-.883-.546-.883-1.008 0-.546 1.3-2.268 1.681-2.772.294-.42.714-1.134 1.3-1.134.756 0 3.025 1.638 3.697 2.142zM60.33 99.76c-1.47 0-2.9.126-4.369.126-1.134 0-1.26-.462-1.26-1.89v-2.058c0-1.681.21-1.765 1.47-1.807.8-.042 1.386-.252 1.386-1.134v-7.183c0-1.093-.084-1.849-.084-2.479 0-1.428 1.387-1.428 2.479-1.428 1.218 0 2.436.042 3.7.042h10.961c1.218 0 2.478-.042 3.7-.042 1.05 0 2.479 0 2.479 1.428 0 .588-.084 1.386-.084 2.479V93a1.147 1.147 0 001.259 1.176c.126 0 .3-.042.421-.042 1.218 0 1.386.378 1.386 1.68v2.143c0 1.47-.084 1.932-1.344 1.932-1.428 0-2.856-.126-4.285-.126zm5.545-19.617c-.294 0-.5.042-.588.336-.168.462-.63.5-2.017.5h-2.9c-.672 0-1.05-.126-1.05-.882 0-.8.084-1.933.084-2.983v-9.49c0-1.008-.084-1.974-.084-2.982 0-1.092.756-1.3 1.68-1.3 1.218 0 2.479.084 3.7.084h9.03c1.219 0 2.479-.084 3.7-.084.924 0 1.68.21 1.68 1.3 0 1.008-.084 1.974-.084 2.982v9.494c0 1.05.126 2.143.126 3.025 0 .756-.42.84-1.47.84h-3.111c-1.009 0-1.177-.042-1.429-.546a.64.64 0 00-.5-.294zm-1.47 7.939a.556.556 0 00-.546-.546h-.21a.557.557 0 00-.547.546v5.629a.557.557 0 00.547.546h.21a.556.556 0 00.546-.546zM65.2 69.1a.556.556 0 00.546.546h6.934a.556.556 0 00.546-.546v-.252a.556.556 0 00-.546-.546h-6.931a.556.556 0 00-.546.546zm0 5.587a.663.663 0 00.672.672h6.679a.663.663 0 00.672-.672v-.126a.663.663 0 00-.672-.672h-6.676a.663.663 0 00-.672.672zm4.579 13.4a.556.556 0 00-.546-.546h-.21a.557.557 0 00-.547.546v5.629a.557.557 0 00.547.546h.21a.556.556 0 00.546-.546zm4.074 5.629a.53.53 0 00.547.546h.21a.556.556 0 00.546-.546v-5.634a.556.556 0 00-.546-.546h-.21a.557.557 0 00-.547.546zm22.555-10.381c.882 0 1.763-.042 2.688-.042 1.218 0 1.806.378 2.773 1.639a3.155 3.155 0 01.84 1.764 5.1 5.1 0 01-.462 1.554 25.633 25.633 0 01-5.5 7.015c-.883.84-4.873 4.159-5.882 4.159-1.218 0-3.7-3.193-3.7-4.411 0-.462.461-.714.839-.924a25.313 25.313 0 004.622-3.234c.377-.294 2.058-1.891 2.058-2.269 0-.21-.21-.252-.924-.252h-2.225c-.967 0-1.975.084-2.689.084s-.8-.378-.8-1.428v-2.437c0-.84.084-1.344.757-1.344.756 0 1.638.126 2.731.126zm21.087 6.89c0 .462.8.84 1.806 1.428a38.491 38.491 0 004.915 2.478c.294.126.924.336.924.714 0 .882-2.94 4.453-4.032 4.453-1.219 0-5.629-2.94-6.764-3.781a36.319 36.319 0 01-4.2-3.78c-.126-.168-.337-.42-.589-.42-.294 0-.336.378-.336.588 0 .84.042 1.68.042 2.52 0 2.017-.378 3.823-2.268 4.873a13.509 13.509 0 01-6.049 1.134c-2.017 0-3.192 0-3.192-4.873 0-.672.209-1.092.965-1.092.841 0 1.723.126 2.605.126 1.6 0 1.6-.252 1.6-2.1V84.3c0-1.638-.083-2.73-1.26-2.73h-6.179c-1.26 0-2.353-.126-2.353-1.47 0-1.051.126-2.1.126-3.151v-7.14c0-.84-.084-1.722-.084-2.605 0-1.092.715-1.344 1.681-1.344 1.344 0 2.731.084 4.074.084h1.513c1.26 0 1.513-.63 1.975-1.89.084-.294.21-.588.336-.924.167-.588.251-.883.8-.883.672 0 4.831.8 5.755.967.589.126 1.009.168 1.009.63 0 .42-.252.462-.589.5a.91.91 0 00-.8.84c0 .63.63.756 1.135.756h3.192c1.344 0 2.689-.084 4.075-.084.925 0 1.68.21 1.68 1.3 0 .756-.084 1.681-.084 2.647v7.147c0 1.134.126 2.269.126 3.151 0 1.344-1.091 1.47-2.268 1.47h-6.217c-.21 0-.546 0-.546.252 0 .126.042.168.042.294 0 .168-.084.21-.168.378a.74.74 0 00-.169.42c0 .378.253.546.5.882.462.63 1.806 2.437 2.605 2.437.294 0 .587-.252 1.049-.588a3.673 3.673 0 01.42-.336 74.434 74.434 0 002.857-2.227c.252-.252.8-.84 1.134-.84a4.986 4.986 0 011.806 1.134c.168.126.294.252.42.336.8.588 1.555 1.219 2.353 1.849a.9.9 0 01.5.714c0 .42-.547.42-.883.462a1.852 1.852 0 00-1.26.5c-.63.42-1.177.8-1.639 1.092-1.376.928-2.086 1.432-2.086 1.895zm-5.167-18.61a.466.466 0 00.463-.462V70.9a.466.466 0 00-.463-.462H99.852a.5.5 0 00-.5.462v.252a.477.477 0 00.5.462zm-12.434 4.117a.556.556 0 00-.546.546v.168a.556.556 0 00.546.546h12.392a.521.521 0 00.5-.546v-.168a.5.5 0 00-.5-.546zm50.982 1.517a11.263 11.263 0 013.391 8.224 11.993 11.993 0 01-6.432 10.627 12.274 12.274 0 01-3.807 1.44c-1.12 0-2.816-2.944-2.816-3.84 0-.288.288-.416 1.216-.64 3.711-.96 6.751-3.3 6.751-7.391 0-5.024-3.84-7.008-4.8-7.008-.544 0-.607.576-.639 1.152-.352 4.448-1.632 9.887-4.575 13.407a6.2 6.2 0 01-4.641 2.656 5.7 5.7 0 01-4.863-3.3 10.831 10.831 0 01-1.056-4.8 13.557 13.557 0 0113.631-13.791 11.866 11.866 0 018.64 3.264zm-17.5 10.463c0 .768.192 3.1 1.311 3.1.769 0 1.857-2.112 2.176-2.784a28.915 28.915 0 002.017-8.191c0-.256-.128-.48-.417-.48-.931.004-5.09 2.948-5.09 8.355zM45.46 120.64a.951.951 0 00.992-.96v-.512a46.764 46.764 0 00-.225-4.736c0-.16-.031-.288-.031-.416 0-.384.256-.48.575-.48.7 0 2.784.192 3.521.288a1.546 1.546 0 00.383.032c.608.064.993.1.993.448a.623.623 0 01-.289.448 1.652 1.652 0 00-.379 1.312c0 1.056 0 2.08.031 3.1v.384a1.013 1.013 0 00.992.96h1.088c1.12 0 4.063-.192 4.479-.192.769 0 1.025.32 1.025 1.728v1.632c0 1.12-.256 1.408-1.185 1.408-.479 0-.991-.032-1.471-.032-.928 0-1.824.032-2.72.032h-1.092a1.052 1.052 0 00-1.023 1.023l.128 6.432c.031.832.031 1.664.031 2.5 0 2.272-.448 3.84-2.816 4.512a12.2 12.2 0 01-3.391.415h-.224c-.641 0-1.248-.032-1.473-.543a12.337 12.337 0 01-.863-3.712c0-.32.064-.576.447-.576a5.78 5.78 0 01.7.064 8.729 8.729 0 001.312.1c1.632 0 1.7-.32 1.7-1.5l-.063-4.736a.412.412 0 00-.416-.448.659.659 0 00-.544.32 50.445 50.445 0 01-7.264 6.784 6.7 6.7 0 01-2.143 1.312c-.769 0-3.424-2.272-3.424-3.04 0-.288.447-.544.735-.7a38 38 0 008.352-6.432c.223-.224.9-.863.9-1.119a.485.485 0 00-.48-.448l-3.456.064c-1.088.032-3.68.16-4.159.16-.832 0-1.056-.288-1.056-2.24v-1.196c0-1.12.1-1.344.991-1.344.832 0 1.664.064 2.5.064.544 0 1.088-.032 1.632-.032zm32.16-3.424c.991 0 2.4-.064 3.039-.064.7 0 1.5.864 1.984 1.376l.256.256c.512.544 1.408 1.472 1.408 1.952a8.876 8.876 0 01-.288 1.056c-.128.544-.225.992-.352 1.536-1.376 6.783-5.056 11.2-11.007 14.527-.96.512-3.872 2.015-4.832 2.015-.7 0-1.28-1.023-1.6-1.567a7.971 7.971 0 01-1.056-2.4c0-.352.32-.448.608-.512a20.445 20.445 0 009.248-5.344c1.983-2.144 3.455-5.567 3.455-7.3 0-.576-.576-.64-1.088-.64H67.22c-1.376 0-2.719.032-4.095.032-1.088 0-1.248-.128-1.248-1.376v-2.08c0-1.344.16-1.536 1.087-1.536 1.44 0 2.913.064 4.352.064zM89.3 115.3a3.328 3.328 0 11-3.328-3.327A3.332 3.332 0 0189.3 115.3zm-5.023 0a1.666 1.666 0 001.695 1.7 1.687 1.687 0 001.7-1.7 1.7 1.7 0 10-3.392 0zm9.855 6.2c.512 0 4.064 2.176 4.7 2.592.64.384 2.368 1.408 2.368 1.952 0 .7-2.048 3.519-2.751 3.519a1.755 1.755 0 01-.8-.416 55.211 55.211 0 00-5.407-3.455c-.352-.192-.672-.352-.672-.64.003-.604 1.858-3.552 2.562-3.552zm.321 13.6c.735-.16 3.007-1.024 3.84-1.344a19.9 19.9 0 007.743-4.7c2.591-2.656 4.383-6.591 5.632-10.047.127-.352.319-.832.8-.832.449 0 1.44.928 1.825 1.28.415.416 1.6 1.568 1.6 2.048a9.627 9.627 0 01-.7 2.112c-3.456 8.319-8.959 12.735-17.247 15.838-.863.321-.928.321-1.312.864a.354.354 0 01-.288.224c-.32 0-.736-.927-.864-1.215-.447-.9-1.119-2.528-1.535-3.328a1.261 1.261 0 01-.16-.448c-.006-.289.441-.385.666-.452zm7.966-17.759c.449.32 2.145 1.5 2.145 1.952 0 .7-2.08 3.392-2.72 3.392-.224 0-.64-.352-.832-.512a59.407 59.407 0 00-5.248-3.68c-.191-.128-.607-.384-.607-.64 0-.608 2.111-3.232 2.752-3.232.575.003 3.839 2.243 4.51 2.723zm32.481 4.451c1.023 0 1.695.384 1.695 1.472v12.287c0 .672.032 1.376.032 2.08 0 1.216-.16 1.408-1.44 1.408h-1.216c-.928 0-1.183-.128-1.311-.64-.1-.352-.256-.416-1.12-.416h-6.623c-1.121 0-2.273.064-3.392.064-.7 0-.864-.16-.864-1.728V135.2c0-.736.063-1.216.736-1.216.735 0 2.271.064 3.455.064h7.04a.608.608 0 00.608-.608v-.992a.588.588 0 00-.608-.608h-6.72c-1.183 0-2.559.064-3.423.064-.768 0-.832-.48-.832-1.7v-.832c0-1.024.032-1.472.767-1.472.385 0 1.185.064 2.017.064h8.191a.608.608 0 00.608-.608v-.992a.607.607 0 00-.608-.607h-7.04c-1.088 0-2.208.064-3.327.064-.8 0-.864-.384-.864-1.7v-.96c0-.96.063-1.408.736-1.408.48 0 1.023.032 1.728.032zm32.543.384c.064.1.1.224.192.352a5.091 5.091 0 01.544 1.5c0 .768-2.592 3.231-3.263 3.871-5.153 5.024-10.3 7.9-16.7 10.976a1.394 1.394 0 00-.864.831.276.276 0 01-.256.192c-.256 0-.447-.287-.576-.511a27.932 27.932 0 01-1.5-2.464 8.093 8.093 0 01-.928-1.92c0-.288.352-.448.608-.512a33.672 33.672 0 008.191-3.52 42.831 42.831 0 0011.551-10.015c.065-.1.128-.16.192-.256.289-.416.544-.768.9-.768.63.004 1.621 1.732 1.909 2.244zm-19.263-6.528a36.54 36.54 0 015.632 4.032.684.684 0 01.288.576c0 .928-2.271 3.52-3.008 3.52a1.39 1.39 0 01-.8-.48 33 33 0 00-5.376-3.744c-.256-.16-.577-.352-.577-.672 0-.64 1.92-3.68 2.849-3.68a3.242 3.242 0 01.992.448zm-33.009-82.597a5.2 5.2 0 00-1.215-1.7 10.392 10.392 0 00-2.622-1.75.8.8 0 00-1.124.321.907.907 0 00.306 1.18c2.51 1.713 2.924 3.767 1.108 5.91a8.133 8.133 0 01-2.333 1.743 22.03 22.03 0 01-17.582 0 8.161 8.161 0 01-2.333-1.743c-1.816-2.143-1.4-4.2 1.11-5.91a.908.908 0 00.3-1.18.8.8 0 00-1.122-.321 10.358 10.358 0 00-2.623 1.75 5.169 5.169 0 00-1.215 1.7 5.767 5.767 0 00.044 3.966 7.563 7.563 0 002.083 2.932 14.567 14.567 0 005.371 2.884 25.111 25.111 0 0014.344 0 14.567 14.567 0 005.371-2.884 7.553 7.553 0 002.083-2.932 5.75 5.75 0 00.374-2.035 5.824 5.824 0 00-.325-1.931z"/><path class="cls-2" d="M99.533 34.633a5.047 5.047 0 001.333 1.833c.405.324.727.426.976.285s.3-.5.211-1-.3-1.1-.446-1.826a13.457 13.457 0 01-.246-2.656 7.813 7.813 0 01.142-1.5 10.305 10.305 0 01.5-1.612 11.321 11.321 0 00.6-2.053 9.019 9.019 0 00.114-2.056 9.516 9.516 0 00-.738-3.29 5.024 5.024 0 00-1.334-1.833c-.4-.323-.727-.425-.976-.284s-.3.5-.209 1 .3 1.105.446 1.826a13.424 13.424 0 01.247 2.655 7.9 7.9 0 01-.143 1.5 10.109 10.109 0 01-.5 1.612 11.24 11.24 0 00-.6 2.055 8.843 8.843 0 00-.115 2.055 9.488 9.488 0 00.738 3.289zm5.25-2.086a6.493 6.493 0 00.494 1.39 4.2 4.2 0 001.317 1.6c.392.261.7.325.946.172s.293-.489.2-.942-.288-.984-.417-1.6a10.3 10.3 0 01-.208-2.29 5.954 5.954 0 01.153-1.271 8.428 8.428 0 01.5-1.381 9.791 9.791 0 00.633-1.848 7.392 7.392 0 00.148-1.9 8.874 8.874 0 00-.23-1.624 6.43 6.43 0 00-.495-1.389 4.164 4.164 0 00-1.317-1.6c-.392-.261-.7-.324-.946-.171s-.292.488-.2.941.289.984.418 1.6a10.3 10.3 0 01.208 2.289 6.02 6.02 0 01-.155 1.271 8.5 8.5 0 01-.5 1.382 9.547 9.547 0 00-.633 1.849 7.388 7.388 0 00-.147 1.9 8.959 8.959 0 00.231 1.622zm-11.683 0a6.44 6.44 0 00.5 1.39 4.183 4.183 0 001.317 1.6c.392.261.7.325.945.172s.294-.489.2-.942-.287-.984-.417-1.6a10.237 10.237 0 01-.209-2.29 5.956 5.956 0 01.155-1.271 8.233 8.233 0 01.5-1.381 9.651 9.651 0 00.633-1.848 7.345 7.345 0 00.147-1.9 9.068 9.068 0 00-.228-1.624 6.485 6.485 0 00-.5-1.389 4.2 4.2 0 00-1.317-1.6c-.392-.261-.7-.323-.946-.17s-.293.488-.2.941.287.984.416 1.6a10.293 10.293 0 01.209 2.289 5.957 5.957 0 01-.156 1.271 8.362 8.362 0 01-.5 1.382 9.683 9.683 0 00-.634 1.849 7.382 7.382 0 00-.146 1.9 9.141 9.141 0 00.231 1.621z"/><path stroke="#006d88" stroke-miterlimit="10" fill="#fff" d="M100.5 179.512l-14.055-14.055h28.11L100.5 179.512z"/></g></g></svg>