<svg height="132.368" viewBox="0 0 212.191 132.368" width="212.191" xmlns="http://www.w3.org/2000/svg"><path d="M176.24 105.947c-3.256-1.072-7.425-.489-10.889-1.52a36.758 36.758 0 01-10.515-5.034c-6.169-4.3-10.208-2.784-17.273-.921-23.272 6.135-43.788 19.382-66.414 27.248-13.686 4.758-28.535 7.379-42.707 4.356-24.888-5.309-34.4-41.022-22.061-61 4.832-7.828 11.975-12.527 20.372-15.786 9.946-3.86 19.668-8.471 29.521-12.6 20.641-8.645 41.436-16.918 62.28-25.061 18.715-7.326 40.3-17.174 60.857-14.02 14.612 2.242 29.23 11.074 31.386 26.81 2.211 16.133-5.145 34.965-15.767 46.958a38.469 38.469 0 01-19.35 12.009c-4.953 1.241-12.672 2.109-9.4 9.144 1.758 3.77 5.94 8.084 9.96 9.417z" fill="#fff" stroke="#006d88" stroke-linecap="round" stroke-linejoin="round" stroke-width="2"/><path d="M29.623 76.341a14.148 14.148 0 011.907.329.256.256 0 01.186.163.285.285 0 01-.1.291 1.307 1.307 0 00-.358.844 42.319 42.319 0 01-1.948 8.138c-.191.529-.9 2.521-1.349 2.686-.383.139-3.313-.407-3.526-.993a.617.617 0 01.064-.457 28.288 28.288 0 002.821-10.523c0-.279.008-.539.211-.611a9.3 9.3 0 012.092.133zm6.941-2.541a25.689 25.689 0 013.1 1.938c.9.644 4.648 3.522 4.959 4.38.172.472-.691 1.4-1 1.742a5.657 5.657 0 01-1.418 1.229c-.316.115-.536-.137-.716-.353a36.368 36.368 0 00-6.956-5.8.919.919 0 01-.433-.436c-.131-.361.5-1.228.741-1.546.212-.332.694-1.043 1.055-1.174a.961.961 0 01.668.02zm4.316-1.26c.148.406-.592 1.67-.864 1.769-.112.041-.22-.048-.321-.113q-1.2-.674-2.448-1.256a.426.426 0 01-.31-.221c-.114-.316.756-1.576.959-1.65a8.449 8.449 0 012.984 1.467zm1.69-2.74c.147.407-.594 1.67-.842 1.761-.112.041-.274-.054-.406-.134a28.718 28.718 0 00-2.408-1.219.4.4 0 01-.279-.2c-.123-.339.724-1.591.95-1.673A8.8 8.8 0 0142.57 69.8zm9.274-.682a.714.714 0 00.423-.946c-.434-1.195-.914-2.375-1.34-3.547l-.089-.249c-.148-.406-.25-.547-.308-.706-.049-.134.025-.212.161-.261.36-.131 2.6-.715 3.121-.827.189-.043.656-.162.746.086a.476.476 0 01-.037.321c-.129.275-.1.42.078.916l.614 1.691c.27.745.524 1.445.58 1.528a.773.773 0 00.856.25L59 66.522c.767-.279 1.534-.557 2.293-.857.293-.108.6-.245.895-.352.518-.187.689-.07 1.057.944l.36.994c.418 1.15.3 1.373-.247 1.57-1.037.377-2.083.73-3.122 1.107l-2.617.95c-.541.2-.529.652-.406 1.271a13.06 13.06 0 01-3.056 11.221 2.161 2.161 0 01-.453.369 6.1 6.1 0 01-3.447-1.406c-.089-.248.245-.522.459-.7a9.5 9.5 0 003.007-8.035 5.836 5.836 0 00-.13-.642.55.55 0 00-.716-.354l-5.008 1.819c-.384.138-.745.269-1.12.431-.2.1-.489.2-.692.278-.654.236-.871-.221-1.223-1.192l-.328-.9c-.3-.834-.4-1.18.184-1.393.338-.123.715-.209 1.054-.332.685-.223 1.34-.461 2.016-.707zM71.7 61.911a.714.714 0 00.423-.946c-.435-1.2-.914-2.374-1.34-3.547l-.09-.248c-.147-.406-.25-.548-.307-.707-.049-.134.025-.212.161-.261.36-.131 2.6-.715 3.121-.826.189-.043.656-.163.746.085a.476.476 0 01-.037.321c-.129.277-.1.42.077.916l.615 1.692c.27.745.523 1.445.579 1.527a.774.774 0 00.858.25l2.345-.852a80.888 80.888 0 002.293-.857c.294-.107.6-.245.895-.35.519-.19.689-.072 1.057.943l.361.992c.418 1.151.3 1.375-.247 1.571-1.038.377-2.084.731-3.122 1.108l-2.617.95c-.541.2-.529.653-.407 1.272a13.052 13.052 0 01-3.052 11.219 2.111 2.111 0 01-.453.369 6.089 6.089 0 01-3.446-1.405c-.09-.248.244-.523.46-.7a9.514 9.514 0 003.006-8.037 5.932 5.932 0 00-.13-.642.55.55 0 00-.716-.353l-5.012 1.815c-.383.14-.744.271-1.119.432-.2.1-.488.2-.692.276-.654.238-.871-.219-1.223-1.189l-.328-.9c-.3-.836-.4-1.182.183-1.395.339-.123.716-.209 1.054-.332.686-.223 1.34-.461 2.017-.707zm12.879-7.485c-.06-.8-.061-1.433-.151-2.243-.028-.22-.043-.47.183-.552s3.291.133 3.763.166.656.12.7.256-.025.213-.121.3a1.943 1.943 0 00-.62 1.527 18.4 18.4 0 001.1 7.237c.172.474.344.947.57.866.18-.065.19-.247.21-.408.028-.622.065-.943.268-1.017.316-.115 1.737.213 1.86.551.147.406-.215 3.346.341 4.881.091.248.275.615.4.878a2.659 2.659 0 01.17.4c.221.61-.356 1.2-.779 1.585a4.145 4.145 0 01-1.044.712c-.406.147-.74-.141-1.168-.547a17.676 17.676 0 01-4.028-6.734 30.506 30.506 0 01-1.654-7.858zm11.959-6.588c.121-.018.318-.039.375.12a.827.827 0 01-.033.471 3.788 3.788 0 00.314 2.133.507.507 0 00.693.361 15.392 15.392 0 001.531-.989 3.7 3.7 0 01.537-.348c.339-.123.592.3.784.609a10.257 10.257 0 01.949 1.774c.2.565.044.75-2.315 1.991-.472.248-.68.45-.475 1.013.107.294 1.356 3.315 1.493 3.621.241.526.461.5 1.132.586a13.709 13.709 0 013.036.838 1.431 1.431 0 01.863.76c.229.631-.352 2.476-1.029 2.723-.339.122-.783-.049-1.421-.329-.124-.056-.238-.091-.361-.149a.72.72 0 00-.549-.106c-.2.072-.23.21-.3.515-.29 1.383-1.738 2.317-2.979 2.768-2.052.744-4.475.474-5.319-1.85-.8-2.211.725-3.914 2.71-4.635l.519-.187a.527.527 0 00.337-.762c-.188-.518-.686-1.538-.817-1.9-.278-.768-.5-1.1-1-.916-.406.148-1.93.8-2.878 1.146l-.335.125a1.857 1.857 0 01-1.21.184 11.673 11.673 0 01-1.121-2.452c-.106-.294-.153-.634.208-.765.135-.049.859-.236 1.071-.287.958-.245 1.9-.536 2.8-.863.361-.131.605-.373.458-.78-.172-.473-1.231-2.617-1.411-3.113-.1-.271-.049-.417.221-.516.484-.171 2.925-.675 3.522-.791zM96.4 63.362c.164.451.967.415 1.441.242.519-.187.951-.549.729-1.158-.163-.451-.871-.219-1.21-.1s-1.138.52-.96 1.016zm20-5.342c.45 1.24-1.113 2.7-1.881 2.981-.5.179-.785-.124-1.22-.553-.632-.613-2.057-1.373-2.576-1.186a1.374 1.374 0 00-.62.686c-.123.223-.3.57-.439.619-.5.18-2.737-1.842-2.924-2.361-.1-.27.071-.434.293-.668.457-.5 3.318-4.012 3.46-4.4a1.447 1.447 0 00-.114-.877l-.321-.881a.554.554 0 00-.722-.375c-.09.034-.6.321-.727.391a9.174 9.174 0 01-1.2.641c-.451.163-.911.3-1.763-2.043-.311-.856-.327-.9.535-1.266a31.027 31.027 0 001.914-.849.78.78 0 00.472-.528 8.413 8.413 0 00-.579-2.088l-.14-.385c-.172-.472-.4-.953-.445-1.088a.335.335 0 01.207-.484c.5-.18 2.879-.51 3.553-.625.219-.029.469-.043.535.137.041.113-.063.253-.136.33a1.268 1.268 0 00-.18.984c.091.53.168.885.193.952a.477.477 0 00.593.3 5.354 5.354 0 00.647-.465 2.5 2.5 0 01.553-.378c.383-.141.766.283 1.176 1.128a14.043 14.043 0 01.595 1.292c.2.564-.035.677-1.814 1.68a.733.733 0 00-.416.968c.115.316.3.554.665.422a2.424 2.424 0 00.47-.322 10.438 10.438 0 012.842-1.594c2.775-1.008 5.957-.4 7.064 2.644a4.756 4.756 0 01-.518 4.274c-.868 1.336-2.972 2.431-4.439 2.965-.609.22-1.083.392-1.387.119a6.673 6.673 0 01-1.152-1.981c-.148-.406-.267-.875.229-1.054.136-.049.657-.163.824-.2.278-.076.715-.209.962-.3.971-.353 2.52-1.22 2.069-2.462a1.955 1.955 0 00-2.628-.91 8.427 8.427 0 00-3.13 2.208 1.035 1.035 0 00-.016.874c.1.271.4.955.519 1.216.184.448 1.017 2.241 1.117 2.512zm-3.962-.5c-.1-.269-.227-.555-.43-.48-.18.064-.318.318-.413.48a.36.36 0 00-.082.336c.066.182.159.225.663.348a.766.766 0 00.32.037c.157-.058.131-.2.082-.336zm8.01-14.092c.675.241 1.732.623 2.378.926a.708.708 0 01.457.344c.214.588-.575 2.635-1.14 2.84a.98.98 0 01-.656-.119 41.063 41.063 0 00-4.123-1.44c-.313-.091-.619-.158-.709-.406a3.612 3.612 0 01.391-1.6c.028-.062.048-.146.077-.207.179-.422.364-.9.635-1a9.646 9.646 0 012.685.658zm20.379-7.504a4.943 4.943 0 012.319 2.733c1 2.752-.413 5.053-2.523 6.763a8.451 8.451 0 01-1.732 1.139c-.406.149-.771-.154-1.533-.848a4.184 4.184 0 01-.981-1.226c-.116-.317.055-.48.264-.608 1.363-.749 3.676-2.251 3.078-3.9a1.444 1.444 0 00-1.943-.851c-1.58.573-3.424 2.595-4.483 3.9a.75.75 0 00-.23.772 1.083 1.083 0 00.407.491c1.991 1.754 4.018 3.469 6.156 5.067a1.66 1.66 0 01.562.562c.188.52-1.642 2.512-2.183 2.709-.249.09-.434 0-.846-.357-.7-.59-1.517-1.365-2.248-2.045-1.1-1-2.233-2-3.315-3.01-.264-.236-.528-.472-.912-.332a9.134 9.134 0 00-1.481 2.248c-.08.131-.189.325-.324.373-.542.2-2.8-1.587-3-2.128-.074-.206.015-.313.662-1.135.256-.348.609-.783 1.079-1.388.2-.278.388-.55.265-.888a11.6 11.6 0 00-2.595-2.224c-.262-.16-.424-.254-.481-.412-.091-.248.459-.7 1.239-1.369a17.742 17.742 0 011.865-1.545c.134-.049.326-.017.375.119a2.048 2.048 0 01.033.371.582.582 0 00.02.2 13.949 13.949 0 001.449 1.67.616.616 0 00.687.133 2.359 2.359 0 00.785-.719q.21-.267.487-.56c.3-.311.406-.428.324-.653-.114-.316-.857-.251-2.108-.18-.25.014-.576.03-.691-.286a5.533 5.533 0 010-1.61c.109-1.035.161-1.385.477-1.5a20.02 20.02 0 013.08-.1c.722.02 1.7.1 1.827.461.1.272.039.6.1.78a.345.345 0 00.444.17 1.471 1.471 0 00.278-.151 11.515 11.515 0 011.14-.517 5.808 5.808 0 014.207-.119zm19.602-7.193a6.525 6.525 0 013.179 3.622c1.343 3.7-.478 7.2-3.246 9.63a19.135 19.135 0 01-4.125 2.773c-.52.19-.884-.113-1.242-.468a8.127 8.127 0 01-1.478-1.889c-.164-.451.3-.721.653-.875a12.735 12.735 0 003.977-2.618c1.414-1.382 2.557-3.226 1.828-5.234-.614-1.693-2.18-2.068-3.737-1.5-3.024 1.1-5.683 3.9-7.738 6.256a1.313 1.313 0 01-.595.472c-.971.353-3.2-1.495-3.526-2.4-.123-.338.137-.536.383-.7 1.795-1.315 3.5-2.75 5.222-4.117a17.34 17.34 0 014.872-2.968 7.1 7.1 0 015.573.016zm3.859-3.646c-.044-.47-.086-.94-.15-1.325-.088-.453-.139-.665.155-.771a30.829 30.829 0 013.781.006c.524.039.709.127.75.238.032.09-.019.16-.093.238a1.455 1.455 0 00-.5 1.228 19.308 19.308 0 00.949 6.907c.45 1.24.672 1.85.965 1.744.158-.057.205-.279.253-.5.054-.275.1-.572.347-.662a2.214 2.214 0 011.574.68c.114.314-.247 2.412.195 3.631.058.158.307.7.475 1.027a6.79 6.79 0 01.306.631c.3.834-1.129 2.094-1.83 2.348-.428.156-.737-.063-1.438-.729a17.288 17.288 0 01-4.073-6.718 29.422 29.422 0 01-1.666-7.973zm6.374-2.417a5.164 5.164 0 01.732-.164 17.411 17.411 0 003.093-.765 14.69 14.69 0 003.176-1.662 2.1 2.1 0 01.425-.233c.43-.155.737.27.905.592a18.1 18.1 0 01.807 1.8c.2.541.185.723-.368 1.027a28.518 28.518 0 01-3.692 1.647c-.677.246-3.831 1.262-4.391 1.057-.237-.092-.483-.769-.573-1.017-.606-1.668-.656-2.085-.114-2.282zm3.591 9.753a3.747 3.747 0 003.708.365 19.444 19.444 0 004.678-2.516 2.52 2.52 0 01.509-.287.543.543 0 01.632.334 23.684 23.684 0 01.965 2.3c.1.293.14.459-.1.7a27.478 27.478 0 01-5.31 2.746c-3.633 1.318-5.89.094-6.078-.424-.156-.43.145-3.117.664-3.307.109-.032.24.045.332.089zM64.016 89.5c-.745.269-1.464.607-1.87.753-.564.206-.708-.048-.97-.771l-.476-1.308c-.262-.72-.315-1.007.249-1.213.384-.138 1.13-.334 1.92-.621l2.684-.974c.429-.155.842-.356 1.27-.512 1.015-.367 1.45-.016 1.835 1.045.246.678.46 1.34.706 2.016a15.657 15.657 0 0012.849 10.351.55.55 0 01.518.373c.246.678-.434 3.095-1.179 3.365a1.39 1.39 0 01-.6-.037 22.7 22.7 0 01-6.8-2.765 19.4 19.4 0 01-3.113-2.319c-.187-.162-.5-.457-.769-.359-.248.091-.3.518-.337.762a21.046 21.046 0 01-4.209 9.646c-.214.256-.661.854-.955.96-.811.3-2.457-1.354-2.72-2.077-.081-.225.075-.358.348-.662a16.043 16.043 0 004.086-12.871A12.88 12.88 0 0065.958 90c-.376-1.037-.476-1.028-.859-.889zm18.475-7.908c.366.022.511.071.568.229.05.135-.01.183-.106.268a2.26 2.26 0 00-.51 1.693 11.48 11.48 0 00.5 3.623c.049.135.139.384.342.31.136-.048.184-.2.2-.56.023-.289.052-.631.3-.721.226-.082 1.5.2 1.632.557a1.258 1.258 0 01.049.416 16.291 16.291 0 00.317 5.094l.2.562c.188.52-.2.918-.575 1.23a4.152 4.152 0 01-1.225.778c-.7.254-1.091-.192-1.468-.668A20.048 20.048 0 0180 89.29a24.615 24.615 0 01-1.261-5.161c-.077-.634-.14-1.3-.226-1.961-.049-.416-.1-.7.1-.777a28.161 28.161 0 013.878.201zM87.263 78a11.805 11.805 0 011.617-.9c.428-.156.576-.031.917.484a33.9 33.9 0 013.219 6.62c1.409 3.88 1.966 7.457.248 11.375-.265.606-.861 1.921-1.492 2.15-.361.131-1.236-.24-1.6-.391-.752-.314-1.381-.57-1.52-.955-.049-.135 0-.28.22-.59a8.931 8.931 0 001.69-4.418 12.711 12.711 0 00-.929-5.511 30.06 30.06 0 00-3.275-6.42 1.831 1.831 0 01-.146-.33c-.128-.358.132-.554 1.051-1.114zm16.253-5.8c.121-.019.332-.071.4.109a.827.827 0 01-.019.442 2.6 2.6 0 00.155 1.552.525.525 0 00.685.34c.406-.148 2.415-1.439 2.952-1.787a5.641 5.641 0 01.86-.516c.315-.115.592.3.727.528a11.767 11.767 0 01.944 1.828c.2.541-.042.728-.713 1.127a90.074 90.074 0 01-3.256 1.793c-.517.265-.741.424-.569.9a.525.525 0 00.7.385 21.785 21.785 0 002.219-1.342 2.851 2.851 0 01.532-.3c.181-.065.359.074.556.335a9.912 9.912 0 01.943 2.108c.263.722-.4 1.066-2.4 2.047-.869.416-1.009.595-.861 1 .45 1.24.538 1.412 1.32 1.384 1.062-.028 4.552.16 4.937 1.221.18.5-.154 2.533-.875 2.8a5.2 5.2 0 01-2.07-.424 2.7 2.7 0 00-1.189-.182c-.316.116-.316.4-.338.685-.084 2.022-1.708 3.173-3.468 3.813a5.39 5.39 0 01-3.007.3A3.436 3.436 0 01100.3 90.2a3.292 3.292 0 01.385-2.949 6.521 6.521 0 013.161-2.194l.248-.09a.473.473 0 00.293-.668.569.569 0 00-.74-.421c-.405.147-1.763.767-2.756 1.128-.857.311-1.09.371-1.447-.189a9.493 9.493 0 01-1.078-1.984c-.123-.338-.192-.67.214-.818.654-.237 1.665-.477 2.748-.87l.609-.221c.564-.2.977-.406.8-.9a.547.547 0 00-.746-.367c-.768.277-2.11.867-3.171 1.252l-.677.246c-.9.328-1.632.567-1.882.3a8.623 8.623 0 01-1.108-2.28c-.115-.314-.232-.707.2-.863s2.871-.812 4.36-1.353l.5-.18c.541-.2.932-.389.76-.863-.075-.2-.647-1.424-.862-1.807a3.311 3.311 0 01-.3-.607c-.1-.27.036-.395.307-.5.416-.154 2.802-.688 3.398-.802zm-.25 16.968c.2.542 1.04.261 1.424.122.609-.221 1.3-.649 1.018-1.416-.116-.317-.394-.241-.823-.084-.451.163-1.856.724-1.619 1.378zm18.913-24.356c.189-.044.553-.1.611.06.024.067-.02.16-.085.259a.99.99 0 00-.117.809c.06.234.209.717.333 1.055.212.586.367.939 1.043.693 1.783-.646 3.483-1.52 5.266-2.167.338-.122.64-.206 1.212 1.372a10.218 10.218 0 01.48 1.742c0 .2-.038.321-.241.394-.112.04-2.606.767-3.314 1-.753.248-1.52.525-2.287.8a.638.638 0 00-.408.914l.2.541a2.136 2.136 0 00.766 1.127 7.868 7.868 0 011.714 2.824c1.319 3.633.412 8.941-.738 9.359a6.606 6.606 0 01-2.049.054c-.73-.042-1.339-.1-1.454-.417-.073-.2.121-.58.245-.8.281-.56.995-1.969.864-2.33-.089-.248-.309-.221-.512-.146-2.092.709-3.734-1.352-4.365-3.088-.728-2.008-.589-4.51 1.452-5.711.149-.08.413-.2.339-.4-.042-.113-.172-.192-.375-.119-.249.091-1.831.869-2.175 1.044-.517.266-3.488 1.93-3.9 2.207a3.168 3.168 0 01-.381.215c-.361.131-.663-.347-1.266-1.66-.339-.721-.55-1.23-.615-1.41-.123-.34-.026-.426.507-.645 2.021-.836 3.994-1.73 5.766-2.476.578-.235 1.081-.469.811-1.213a19.176 19.176 0 00-1.1-2.385.722.722 0 01-.089-.172.328.328 0 01.217-.463c.408-.151 3.101-.747 3.645-.867zm.156 12.736c.147.407.663 1.546 1.272 1.326s.358-1.407.194-1.858c-.171-.473-.623-1.433-1.277-1.2-.609.226-.353 1.284-.189 1.732zm17.64-17.948c.371-.033.645-.056.718.147.058.158-.091.314-.224.439-.318.32-.187.962-.04 1.648l.1.477a3 3 0 00.062.309.487.487 0 00.38.347 1.292 1.292 0 00.582-.084 4.5 4.5 0 012.068-.215c1.792.3 2.683 1.555 3.273 3.18.729 2.008 1.519 5.449 1.126 7.532a5.369 5.369 0 01-3.844 4.255c-.654.238-.971.276-1.4-.2a9.322 9.322 0 01-1.323-2.1c-.107-.293-.075-.559.24-.674s.64-.207.956-.323c1.376-.5 1.628-.718 1.791-1.748a13.706 13.706 0 00-.795-5.354c-.384-1.061-.657-1.319-1.514-1.007-.768.277-.938.441-.87 1.26a30.549 30.549 0 01-.756 8.752 18 18 0 01-.8 2.793.635.635 0 01-.327.3c-.5.179-3.1-.23-3.367-.975-.082-.225.077-.564.206-.84a18.986 18.986 0 001.746-7.783 1.315 1.315 0 00-.036-.447.334.334 0 00-.483-.207 15.89 15.89 0 00-1.681 1.349.992.992 0 01-.378.291c-.385.139-.944-.629-1.411-1.351-.3-.479-.854-1.3-.936-1.526-.123-.338.109-.472.68-.73a23.808 23.808 0 003.26-1.848.836.836 0 00.5-1.023 32.173 32.173 0 00-1-3.315l-.122-.338c-.082-.226-.11-.445.16-.545.219-.084 2.989-.399 3.459-.446zm6.7-.338a20.515 20.515 0 012.586 1.641c.079.074.21.154.357.279a14.239 14.239 0 012.558 2.263c.262.721-1.379 2.671-1.989 2.893-.315.114-.6-.189-.807-.4a20.288 20.288 0 00-4.979-3.94c-.123-.056-.338-.158-.388-.293-.188-.518 1.265-2.425 1.829-2.629a1.028 1.028 0 01.829.19zm12.507 6.621c-.339.123-.449-.041-.637-.559-.753-2.076.141-3.831 1.108-5.458.51-.85.907-1.581.653-2.281-.335-.924-1.313-1.157-2.6-.69a4.609 4.609 0 00-2.65 2.9c-.1.291-.162.467-.3.516-.113.041-.29-.021-.566-.151l-2.244-1.05c-.278-.129-.417-.231-.475-.389a.847.847 0 01.1-.572 8.269 8.269 0 015.12-4.82c3.5-1.27 6.4-.178 7.3 2.3.753 2.076-.134 3.573-1.349 5.571a3.551 3.551 0 00-.526 3.05c.146.407.135.514-.227.645zm4.84 1.869a2.346 2.346 0 01-1.5 3.176 2.094 2.094 0 01-2.8-1.232 2.376 2.376 0 011.426-3.25 2.17 2.17 0 012.874 1.306z" fill="#006d88"/></svg>